<?xml version="1.0" encoding="UTF-8" standalone="no"?>
<!DOCTYPE svg PUBLIC "-//W3C//DTD SVG 1.1//EN" "http://www.w3.org/Graphics/SVG/1.1/DTD/svg11.dtd">
<svg xmlns="http://www.w3.org/2000/svg" version="1.1" viewBox="0.00 0.00 1452.00 1443.00">
<g stroke-width="2.00" fill="none" stroke-linecap="butt">
<path stroke="#a0abd3" vector-effect="non-scaling-stroke" d="
  M 1273.20 1374.06
  Q 1268.41 1367.20 1263.57 1360.68
  Q 1247.70 1339.29 1226.07 1323.75
  Q 1222.15 1320.94 1217.94 1318.56
  Q 1077.12 1239.00 939.85 1161.39
  Q 925.93 1153.51 918.53 1149.09
  C 917.02 1148.18 915.26 1147.50 913.66 1146.60
  Q 875.48 1125.17 837.58 1103.52"
/>
<path stroke="#f5dfdc" vector-effect="non-scaling-stroke" d="
  M 837.58 1103.52
  Q 834.18 1098.95 833.53 1097.48
  Q 824.46 1077.20 820.98 1055.25
  Q 818.70 1040.93 818.00 1030.75
  Q 817.31 1020.69 817.56 1004.79"
/>
<path stroke="#f3d1cb" vector-effect="non-scaling-stroke" d="
  M 817.56 1004.79
  Q 817.35 990.20 819.33 974.73
  Q 819.46 973.76 819.54 972.66"
/>
<path stroke="#f5dfdc" vector-effect="non-scaling-stroke" d="
  M 819.54 972.66
  L 820.00 971.44
  A 1.27 1.26 87.7 0 1 820.64 970.74
  Q 829.57 966.46 838.40 961.15
  Q 859.97 948.17 876.69 929.78
  Q 877.74 928.64 879.79 926.73
  Q 881.45 925.19 882.78 923.54"
/>
<path stroke="#a393b6" vector-effect="non-scaling-stroke" d="
  M 882.78 923.54
  Q 893.42 915.60 898.85 911.10
  Q 928.70 886.37 951.56 855.06
  Q 971.78 827.36 986.59 796.42
  Q 994.49 779.92 1001.24 763.00"
/>
<path stroke="#f3d1cb" vector-effect="non-scaling-stroke" d="
  M 1001.24 763.00
  Q 1002.89 762.05 1004.90 761.52
  Q 1007.24 760.89 1009.27 759.74
  Q 1021.08 753.04 1029.51 740.34
  C 1043.78 718.84 1049.57 691.95 1048.96 666.02
  Q 1048.54 647.84 1042.37 631.07
  Q 1041.40 628.46 1038.50 622.70
  Q 1036.35 618.44 1034.73 614.25"
/>
<path stroke="#a393b6" vector-effect="non-scaling-stroke" d="
  M 1034.73 614.25
  Q 1037.56 582.09 1037.58 550.25
  C 1037.60 530.94 1036.31 511.18 1035.08 492.21
  C 1034.63 485.23 1033.49 478.17 1032.91 471.07
  Q 1031.07 448.67 1026.53 429.14
  Q 1011.73 365.58 968.20 318.94
  Q 944.63 293.68 914.50 274.81
  C 912.59 273.61 911.95 272.22 911.40 270.07
  Q 902.35 234.57 874.93 210.87
  C 853.50 192.35 824.97 182.07 796.94 180.76
  Q 752.52 178.68 716.15 202.54
  C 699.18 213.68 684.79 229.51 674.82 247.12
  A 1.40 1.39 27.2 0 1 673.03 247.69
  Q 658.81 241.10 643.38 236.28
  Q 623.61 230.11 602.69 228.99
  C 571.92 227.34 542.45 236.68 518.40 255.91
  Q 498.46 271.85 483.45 294.24
  Q 462.97 324.79 451.34 362.39
  Q 450.76 364.27 450.41 366.30
  C 450.07 368.37 448.45 369.79 446.94 371.09
  C 427.31 387.99 416.47 412.74 411.46 438.01
  C 404.60 472.66 406.03 508.36 413.97 543.16
  C 414.78 546.69 416.42 550.46 416.41 554.01
  Q 416.39 582.95 419.04 610.25
  Q 419.13 611.18 419.88 612.95"
/>
<path stroke="#f3d1cb" vector-effect="non-scaling-stroke" d="
  M 419.88 612.95
  Q 415.30 618.68 413.38 622.71
  Q 402.29 645.95 403.25 672.17
  Q 403.50 679.08 404.09 685.85
  C 405.80 705.67 412.88 726.42 423.63 741.82
  C 429.30 749.94 437.65 758.18 446.79 761.41
  Q 449.51 762.38 452.56 763.37"
/>
<path stroke="#a393b6" vector-effect="non-scaling-stroke" d="
  M 452.56 763.37
  Q 454.46 767.14 459.21 778.55
  Q 471.80 808.77 491.20 838.80
  Q 517.60 879.66 554.74 910.93"
/>
<path stroke="#f5dfdc" vector-effect="non-scaling-stroke" d="
  M 554.74 910.93
  C 556.70 913.76 559.55 916.70 561.29 918.83
  Q 569.36 928.65 578.51 937.49
  Q 601.22 959.40 630.17 972.07
  Q 631.15 972.50 632.18 974.18"
/>
<path stroke="#f3d1cb" vector-effect="non-scaling-stroke" d="
  M 632.18 974.18
  C 633.70 978.24 634.02 984.54 634.11 988.62
  Q 634.75 1017.99 633.99 1029.04
  C 633.54 1035.64 632.04 1042.92 631.72 1049.97
  Q 631.62 1052.36 630.57 1056.39
  Q 629.25 1061.48 629.21 1066.82"
/>
<path stroke="#f5dfdc" vector-effect="non-scaling-stroke" d="
  M 629.21 1066.82
  Q 628.28 1069.58 626.05 1077.75
  Q 623.62 1086.66 618.39 1097.82
  C 617.50 1099.74 615.78 1101.39 614.81 1103.50"
/>
<path stroke="#a0abd3" vector-effect="non-scaling-stroke" d="
  M 614.81 1103.50
  Q 426.31 1210.25 237.69 1316.80
  Q 227.15 1322.75 220.87 1327.56
  C 204.02 1340.47 191.28 1356.06 179.06 1374.06"
/>
<path stroke="#a56b82" vector-effect="non-scaling-stroke" d="
  M 1034.73 614.25
  Q 1035.11 614.79 1034.79 615.27
  Q 1034.49 615.74 1034.16 615.28
  Q 1028.20 606.82 1018.73 602.29
  Q 1016.74 601.34 1016.04 603.42
  L 1014.72 607.35
  Q 1014.52 607.96 1013.87 607.98
  C 1001.00 608.42 995.58 623.39 993.39 633.78
  Q 991.60 642.22 990.64 650.89"
/>
<path stroke="#9f5874" vector-effect="non-scaling-stroke" d="
  M 990.64 650.89
  Q 988.82 667.59 986.78 684.24
  Q 985.11 697.82 980.06 709.20"
/>
<path stroke="#a56b82" vector-effect="non-scaling-stroke" d="
  M 980.06 709.20
  Q 977.17 714.72 973.01 718.51"
/>
<path stroke="#a77993" vector-effect="non-scaling-stroke" d="
  M 973.01 718.51
  Q 972.08 702.60 971.55 667.00
  C 971.10 637.22 969.84 607.13 958.75 579.94
  Q 948.91 555.78 930.95 539.00
  Q 923.61 532.15 915.02 525.07
  Q 895.69 509.14 880.59 490.00
  Q 855.20 457.81 847.53 418.03
  Q 844.21 400.77 843.89 380.73
  Q 843.89 380.57 843.87 380.42
  A 0.83 0.83 0.0 0 0 842.45 379.96
  C 836.24 386.35 827.11 390.81 818.82 393.56
  Q 806.65 397.60 793.55 398.98
  Q 776.75 400.75 758.45 402.67
  C 740.77 404.52 721.25 409.18 707.95 421.70
  Q 700.70 428.54 694.62 439.51
  Q 683.84 458.96 671.89 477.96
  Q 662.55 492.80 650.78 504.41
  C 633.55 521.40 612.91 529.10 589.21 530.70
  Q 573.37 531.77 552.88 531.74
  C 531.86 531.71 509.74 533.40 494.48 549.93
  Q 486.96 558.07 482.18 569.80
  C 480.98 572.74 480.96 576.07 480.97 579.24
  C 481.09 614.50 480.44 648.87 477.83 683.91
  Q 476.68 699.42 473.11 716.31"
/>
<path stroke="#a56b82" vector-effect="non-scaling-stroke" d="
  M 473.11 716.31
  L 472.15 717.12"
/>
<path stroke="#9f5874" vector-effect="non-scaling-stroke" d="
  M 472.15 717.12
  Q 470.87 716.94 470.45 715.25
  C 466.87 700.76 464.41 686.73 462.16 670.33
  Q 460.32 656.90 458.16 643.55"
/>
<path stroke="#a56b82" vector-effect="non-scaling-stroke" d="
  M 458.16 643.55
  C 455.94 627.83 450.92 613.34 440.15 601.81
  C 439.02 600.60 438.41 600.70 436.94 601.18
  Q 426.56 604.59 419.88 612.95"
/>
<path stroke="#a56b82" vector-effect="non-scaling-stroke" d="
  M 1001.24 763.00
  Q 991.09 764.36 983.21 760.61
  Q 974.33 756.37 968.62 747.13
  Q 968.32 746.64 967.75 746.77"
/>
<path stroke="#ef9689" vector-effect="non-scaling-stroke" d="
  M 980.06 709.20
  Q 981.80 715.20 982.73 721.04
  Q 983.12 723.49 983.87 725.18
  C 986.77 731.68 996.34 730.78 998.16 723.98
  Q 998.72 721.85 998.01 719.11
  C 995.25 708.62 993.89 697.38 994.51 686.88
  Q 994.67 684.20 997.41 684.10
  Q 1007.06 683.73 1015.13 684.75
  Q 1019.98 685.37 1022.59 682.03
  C 1026.22 677.37 1023.58 671.21 1018.24 669.91
  Q 1011.62 668.29 1001.18 668.54
  Q 1000.19 668.56 999.47 667.98
  A 0.85 0.84 -57.6 0 1 999.25 666.95
  Q 1004.77 655.84 1011.81 647.42
  Q 1016.74 641.52 1012.12 636.60
  Q 1006.99 631.15 1001.20 636.41
  Q 995.66 641.46 992.52 649.85
  Q 992.02 651.19 990.64 650.89"
/>
<path stroke="#a491b0" vector-effect="non-scaling-stroke" d="
  M 837.58 1103.52
  Q 835.43 1103.67 834.23 1104.47
  Q 792.00 1132.69 741.36 1134.66
  C 705.52 1136.06 668.52 1127.85 636.04 1113.16
  Q 627.48 1109.29 617.01 1103.90
  Q 616.10 1103.43 614.81 1103.50"
/>
<path stroke="#f7b7a8" vector-effect="non-scaling-stroke" d="
  M 817.56 1004.79
  Q 810.54 1008.15 803.80 1011.67
  Q 792.53 1017.57 790.15 1018.74
  Q 735.91 1045.39 678.75 1058.32
  Q 657.16 1063.21 629.21 1066.82"
/>
<path stroke="#f7b7a8" vector-effect="non-scaling-stroke" d="
  M 973.01 718.51
  Q 971.56 730.57 967.96 743.77
  C 967.68 744.81 967.76 745.71 967.75 746.77"
/>
<path stroke="#a77993" vector-effect="non-scaling-stroke" d="
  M 967.75 746.77
  Q 967.17 747.63 966.92 748.64
  Q 960.25 775.23 951.08 801.05
  Q 938.70 835.93 920.73 868.27
  Q 904.43 897.60 882.78 923.54"
/>
<path stroke="#f7b7a8" vector-effect="non-scaling-stroke" d="
  M 819.54 972.66
  Q 816.81 972.54 815.39 973.15
  Q 784.39 986.53 749.83 991.08
  C 712.51 995.99 673.62 989.76 638.87 975.86
  Q 637.17 975.18 635.58 974.85
  Q 633.90 974.50 632.18 974.18"
/>
<path stroke="#a77993" vector-effect="non-scaling-stroke" d="
  M 554.74 910.93
  Q 543.06 895.00 537.30 885.99
  Q 525.75 867.90 514.36 844.19
  Q 494.18 802.22 481.17 750.46"
/>
<path stroke="#f7b7a8" vector-effect="non-scaling-stroke" d="
  M 481.17 750.46
  L 473.11 716.31"
/>
<path stroke="#ef9689" vector-effect="non-scaling-stroke" d="
  M 458.16 643.55
  Q 458.02 644.27 457.20 644.14
  Q 456.67 644.05 456.47 643.55
  Q 454.87 639.68 450.57 636.03
  C 447.37 633.31 443.20 633.15 440.15 636.27
  C 436.28 640.23 437.53 644.13 440.58 647.80
  Q 448.23 657.03 452.73 667.13
  A 1.00 1.00 0.0 0 1 451.79 668.53
  Q 443.88 668.36 436.61 669.26
  Q 433.89 669.60 431.61 670.90
  C 428.82 672.51 426.98 676.29 428.20 679.49
  C 429.67 683.36 432.47 685.07 436.80 684.83
  C 440.40 684.63 443.87 683.99 447.46 683.96
  Q 451.33 683.93 454.92 684.13
  Q 457.69 684.27 457.76 687.02
  Q 458.13 703.85 454.15 718.76
  C 452.83 723.73 454.91 728.65 460.20 729.60
  Q 464.62 730.39 467.70 725.92
  Q 468.49 724.78 469.63 720.93
  Q 470.19 719.02 472.15 717.12"
/>
<path stroke="#a56b82" vector-effect="non-scaling-stroke" d="
  M 481.17 750.46
  Q 472.77 761.14 460.82 763.02
  Q 459.31 763.26 456.70 763.27
  Q 454.41 763.27 452.56 763.37"
/>
<path stroke="#a77993" vector-effect="non-scaling-stroke" d="
  M 581.35 602.63
  Q 599.16 595.58 617.99 593.92
  Q 628.38 593.01 640.84 593.90
  C 646.13 594.28 650.32 593.41 653.45 588.97
  C 658.40 581.94 655.74 572.64 648.40 568.64
  Q 645.63 567.13 636.93 566.68
  Q 601.34 564.86 568.60 578.84
  C 563.44 581.04 559.66 583.33 558.17 589.00
  C 556.79 594.25 558.39 599.67 562.52 603.28
  C 568.77 608.74 574.69 605.26 581.35 602.63"
/>
<path stroke="#a77993" vector-effect="non-scaling-stroke" d="
  M 869.90 604.19
  C 876.09 606.90 882.10 607.37 886.80 601.50
  C 892.88 593.91 889.95 583.70 881.24 579.81
  Q 845.09 563.64 804.60 567.14
  C 786.88 568.67 787.51 595.57 806.12 593.98
  C 828.24 592.10 849.82 595.39 869.90 604.19"
/>
<path stroke="#927992" vector-effect="non-scaling-stroke" d="
  M 621.2500 699.0200
  A 38.61 20.48 90.0 0 0 641.7300 660.4100
  A 38.61 20.48 90.0 0 0 621.2500 621.8000
  A 38.61 20.48 90.0 0 0 600.7700 660.4100
  A 38.61 20.48 90.0 0 0 621.2500 699.0200"
/>
<path stroke="#927992" vector-effect="non-scaling-stroke" d="
  M 826.3900 699.0200
  A 38.62 20.47 90.0 0 0 846.8600 660.4000
  A 38.62 20.47 90.0 0 0 826.3900 621.7800
  A 38.62 20.47 90.0 0 0 805.9200 660.4000
  A 38.62 20.47 90.0 0 0 826.3900 699.0200"
/>
<path stroke="#f7b7a8" vector-effect="non-scaling-stroke" d="
  M 625.06 701.32
  Q 623.44 701.58 621.96 701.50
  Q 620.38 701.42 618.36 700.76
  Q 616.04 700.00 613.83 699.83
  Q 594.00 698.28 574.36 703.96
  Q 564.99 706.67 555.66 712.73
  C 550.87 715.85 546.73 720.88 546.30 726.57
  C 545.82 732.92 550.41 738.80 555.77 742.38
  Q 566.63 749.62 581.42 752.80
  Q 590.61 754.78 598.36 755.19
  Q 606.59 755.64 615.79 755.36
  Q 633.00 754.85 648.89 748.98
  Q 653.37 747.32 657.78 744.79
  Q 663.10 741.75 665.82 738.73
  Q 676.82 726.50 664.44 715.13
  Q 660.48 711.49 654.82 708.60
  Q 643.49 702.83 629.99 701.24
  Q 627.44 700.94 625.06 701.32"
/>
<path stroke="#f7b7a8" vector-effect="non-scaling-stroke" d="
  M 830.34 700.64
  Q 827.34 701.79 824.42 701.00
  Q 822.40 700.46 820.54 700.70
  Q 812.99 701.67 806.73 703.34
  Q 793.69 706.83 783.88 714.34
  Q 779.08 718.02 776.99 723.63
  C 776.28 725.56 776.37 729.38 777.10 731.29
  Q 779.58 737.82 785.30 741.86
  Q 796.75 749.95 814.35 753.35
  Q 819.55 754.36 823.96 754.80
  Q 833.40 755.74 845.99 755.40
  Q 863.15 754.95 879.62 748.80
  C 887.85 745.72 898.82 739.30 900.93 730.64
  C 904.27 716.94 885.34 707.63 874.18 704.27
  Q 855.41 698.63 835.63 699.52
  Q 832.94 699.64 830.34 700.64"
/>
<path stroke="#f1a49a" vector-effect="non-scaling-stroke" d="
  M 706.30 791.55
  C 702.32 786.77 706.15 780.87 708.41 776.32
  Q 709.32 774.50 710.41 772.98
  Q 718.56 761.60 724.24 752.41
  Q 729.15 744.48 731.11 737.34
  Q 732.48 732.33 727.82 729.13
  C 723.30 726.03 718.28 728.72 716.44 733.34
  Q 713.27 741.26 709.85 746.38
  Q 704.12 754.97 697.38 764.87
  C 690.80 774.52 685.38 787.17 692.33 798.37
  C 696.95 805.81 704.41 810.61 712.43 814.35
  C 717.99 816.94 722.11 819.78 726.58 815.39
  C 730.87 811.16 728.80 805.02 723.58 802.59
  C 717.37 799.69 710.58 796.71 706.30 791.55"
/>
<path stroke="#f1a49a" vector-effect="non-scaling-stroke" d="
  M 762.36 851.18
  Q 739.31 862.50 715.76 860.98
  C 699.78 859.96 685.95 854.30 673.13 844.84
  C 669.42 842.10 665.55 842.20 662.48 845.72
  C 658.78 849.95 660.74 854.97 664.96 857.93
  Q 698.14 881.21 737.46 875.24
  C 751.97 873.04 765.85 867.37 778.94 859.91
  C 784.00 857.02 788.88 854.15 786.28 847.47
  C 784.90 843.91 780.05 841.52 776.23 843.68
  Q 767.10 848.85 762.36 851.18"
/>
</g>
<path fill="#f1f8ff" d="
  M 39.27 39.97
  L 39.27 391.28
  A 0.33 0.33 0.0 0 1 38.94 391.61
  L 15.29 391.64
  A 0.33 0.33 0.0 0 1 14.96 391.31
  L 14.96 15.29
  A 0.33 0.33 0.0 0 1 15.29 14.96
  L 389.65 14.96
  A 0.33 0.33 0.0 0 1 389.98 15.29
  L 390.01 39.30
  A 0.33 0.33 0.0 0 1 389.68 39.63
  L 39.60 39.64
  A 0.33 0.33 0.0 0 0 39.27 39.97
  Z"
/>
<path fill="#f1f8ff" d="
  M 1413.01 40.13
  Q 1412.92 39.59 1412.38 39.59
  Q 1236.89 39.75 1070.52 39.51
  Q 1067.71 39.51 1064.57 39.44
  Q 1063.93 39.42 1063.93 38.78
  L 1063.90 15.53
  Q 1063.90 14.96 1064.47 14.96
  L 1437.23 14.96
  Q 1437.75 14.96 1437.75 15.48
  L 1437.75 391.08
  Q 1437.75 391.66 1437.17 391.66
  L 1413.96 391.59
  Q 1413.21 391.59 1413.21 390.84
  Q 1413.24 217.29 1413.25 43.76
  Q 1413.25 41.76 1413.01 40.13
  Z"
/>
<path fill="#f1f8ff" d="
  M 1273.20 1374.06
  Q 1268.41 1367.20 1263.57 1360.68
  Q 1247.70 1339.29 1226.07 1323.75
  Q 1222.15 1320.94 1217.94 1318.56
  Q 1077.12 1239.00 939.85 1161.39
  Q 925.93 1153.51 918.53 1149.09
  C 917.02 1148.18 915.26 1147.50 913.66 1146.60
  Q 875.48 1125.17 837.58 1103.52
  Q 834.18 1098.95 833.53 1097.48
  Q 824.46 1077.20 820.98 1055.25
  Q 818.70 1040.93 818.00 1030.75
  Q 817.31 1020.69 817.56 1004.79
  Q 817.35 990.20 819.33 974.73
  Q 819.46 973.76 819.54 972.66
  L 820.00 971.44
  A 1.27 1.26 87.7 0 1 820.64 970.74
  Q 829.57 966.46 838.40 961.15
  Q 859.97 948.17 876.69 929.78
  Q 877.74 928.64 879.79 926.73
  Q 881.45 925.19 882.78 923.54
  Q 893.42 915.60 898.85 911.10
  Q 928.70 886.37 951.56 855.06
  Q 971.78 827.36 986.59 796.42
  Q 994.49 779.92 1001.24 763.00
  Q 1002.89 762.05 1004.90 761.52
  Q 1007.24 760.89 1009.27 759.74
  Q 1021.08 753.04 1029.51 740.34
  C 1043.78 718.84 1049.57 691.95 1048.96 666.02
  Q 1048.54 647.84 1042.37 631.07
  Q 1041.40 628.46 1038.50 622.70
  Q 1036.35 618.44 1034.73 614.25
  Q 1037.56 582.09 1037.58 550.25
  C 1037.60 530.94 1036.31 511.18 1035.08 492.21
  C 1034.63 485.23 1033.49 478.17 1032.91 471.07
  Q 1031.07 448.67 1026.53 429.14
  Q 1011.73 365.58 968.20 318.94
  Q 944.63 293.68 914.50 274.81
  C 912.59 273.61 911.95 272.22 911.40 270.07
  Q 902.35 234.57 874.93 210.87
  C 853.50 192.35 824.97 182.07 796.94 180.76
  Q 752.52 178.68 716.15 202.54
  C 699.18 213.68 684.79 229.51 674.82 247.12
  A 1.40 1.39 27.2 0 1 673.03 247.69
  Q 658.81 241.10 643.38 236.28
  Q 623.61 230.11 602.69 228.99
  C 571.92 227.34 542.45 236.68 518.40 255.91
  Q 498.46 271.85 483.45 294.24
  Q 462.97 324.79 451.34 362.39
  Q 450.76 364.27 450.41 366.30
  C 450.07 368.37 448.45 369.79 446.94 371.09
  C 427.31 387.99 416.47 412.74 411.46 438.01
  C 404.60 472.66 406.03 508.36 413.97 543.16
  C 414.78 546.69 416.42 550.46 416.41 554.01
  Q 416.39 582.95 419.04 610.25
  Q 419.13 611.18 419.88 612.95
  Q 415.30 618.68 413.38 622.71
  Q 402.29 645.95 403.25 672.17
  Q 403.50 679.08 404.09 685.85
  C 405.80 705.67 412.88 726.42 423.63 741.82
  C 429.30 749.94 437.65 758.18 446.79 761.41
  Q 449.51 762.38 452.56 763.37
  Q 454.46 767.14 459.21 778.55
  Q 471.80 808.77 491.20 838.80
  Q 517.60 879.66 554.74 910.93
  C 556.70 913.76 559.55 916.70 561.29 918.83
  Q 569.36 928.65 578.51 937.49
  Q 601.22 959.40 630.17 972.07
  Q 631.15 972.50 632.18 974.18
  C 633.70 978.24 634.02 984.54 634.11 988.62
  Q 634.75 1017.99 633.99 1029.04
  C 633.54 1035.64 632.04 1042.92 631.72 1049.97
  Q 631.62 1052.36 630.57 1056.39
  Q 629.25 1061.48 629.21 1066.82
  Q 628.28 1069.58 626.05 1077.75
  Q 623.62 1086.66 618.39 1097.82
  C 617.50 1099.74 615.78 1101.39 614.81 1103.50
  Q 426.31 1210.25 237.69 1316.80
  Q 227.15 1322.75 220.87 1327.56
  C 204.02 1340.47 191.28 1356.06 179.06 1374.06
  Q 143.10 1374.04 107.18 1374.02
  Q 96.66 1374.01 93.02 1372.80
  C 81.00 1368.80 73.57 1358.19 73.57 1345.63
  Q 73.52 724.45 73.41 103.92
  Q 73.41 93.83 74.89 89.24
  C 78.65 77.63 89.29 69.88 101.57 69.88
  Q 715.47 69.85 1350.99 69.85
  C 1366.71 69.85 1379.37 82.07 1379.37 97.78
  Q 1379.39 741.42 1379.37 1345.05
  Q 1379.37 1361.10 1366.76 1369.55
  C 1359.54 1374.39 1353.61 1374.00 1343.24 1374.01
  Q 1308.23 1374.05 1273.20 1374.06
  Z"
/>
<path fill="#542d6d" d="
  M 1034.73 614.25
  Q 1035.11 614.79 1034.79 615.27
  Q 1034.49 615.74 1034.16 615.28
  Q 1028.20 606.82 1018.73 602.29
  Q 1016.74 601.34 1016.04 603.42
  L 1014.72 607.35
  Q 1014.52 607.96 1013.87 607.98
  C 1001.00 608.42 995.58 623.39 993.39 633.78
  Q 991.60 642.22 990.64 650.89
  Q 988.82 667.59 986.78 684.24
  Q 985.11 697.82 980.06 709.20
  Q 977.17 714.72 973.01 718.51
  Q 972.08 702.60 971.55 667.00
  C 971.10 637.22 969.84 607.13 958.75 579.94
  Q 948.91 555.78 930.95 539.00
  Q 923.61 532.15 915.02 525.07
  Q 895.69 509.14 880.59 490.00
  Q 855.20 457.81 847.53 418.03
  Q 844.21 400.77 843.89 380.73
  Q 843.89 380.57 843.87 380.42
  A 0.83 0.83 0.0 0 0 842.45 379.96
  C 836.24 386.35 827.11 390.81 818.82 393.56
  Q 806.65 397.60 793.55 398.98
  Q 776.75 400.75 758.45 402.67
  C 740.77 404.52 721.25 409.18 707.95 421.70
  Q 700.70 428.54 694.62 439.51
  Q 683.84 458.96 671.89 477.96
  Q 662.55 492.80 650.78 504.41
  C 633.55 521.40 612.91 529.10 589.21 530.70
  Q 573.37 531.77 552.88 531.74
  C 531.86 531.71 509.74 533.40 494.48 549.93
  Q 486.96 558.07 482.18 569.80
  C 480.98 572.74 480.96 576.07 480.97 579.24
  C 481.09 614.50 480.44 648.87 477.83 683.91
  Q 476.68 699.42 473.11 716.31
  L 472.15 717.12
  Q 470.87 716.94 470.45 715.25
  C 466.87 700.76 464.41 686.73 462.16 670.33
  Q 460.32 656.90 458.16 643.55
  C 455.94 627.83 450.92 613.34 440.15 601.81
  C 439.02 600.60 438.41 600.70 436.94 601.18
  Q 426.56 604.59 419.88 612.95
  Q 419.13 611.18 419.04 610.25
  Q 416.39 582.95 416.41 554.01
  C 416.42 550.46 414.78 546.69 413.97 543.16
  C 406.03 508.36 404.60 472.66 411.46 438.01
  C 416.47 412.74 427.31 387.99 446.94 371.09
  C 448.45 369.79 450.07 368.37 450.41 366.30
  Q 450.76 364.27 451.34 362.39
  Q 462.97 324.79 483.45 294.24
  Q 498.46 271.85 518.40 255.91
  C 542.45 236.68 571.92 227.34 602.69 228.99
  Q 623.61 230.11 643.38 236.28
  Q 658.81 241.10 673.03 247.69
  A 1.40 1.39 27.2 0 0 674.82 247.12
  C 684.79 229.51 699.18 213.68 716.15 202.54
  Q 752.52 178.68 796.94 180.76
  C 824.97 182.07 853.50 192.35 874.93 210.87
  Q 902.35 234.57 911.40 270.07
  C 911.95 272.22 912.59 273.61 914.50 274.81
  Q 944.63 293.68 968.20 318.94
  Q 1011.73 365.58 1026.53 429.14
  Q 1031.07 448.67 1032.91 471.07
  C 1033.49 478.17 1034.63 485.23 1035.08 492.21
  C 1036.31 511.18 1037.60 530.94 1037.58 550.25
  Q 1037.56 582.09 1034.73 614.25
  Z"
/>
<path fill="#f9c5b8" d="
  M 973.01 718.51
  Q 971.56 730.57 967.96 743.77
  C 967.68 744.81 967.76 745.71 967.75 746.77
  Q 967.17 747.63 966.92 748.64
  Q 960.25 775.23 951.08 801.05
  Q 938.70 835.93 920.73 868.27
  Q 904.43 897.60 882.78 923.54
  Q 881.45 925.19 879.79 926.73
  Q 877.74 928.64 876.69 929.78
  Q 859.97 948.17 838.40 961.15
  Q 829.57 966.46 820.64 970.74
  A 1.27 1.26 87.7 0 0 820.00 971.44
  L 819.54 972.66
  Q 816.81 972.54 815.39 973.15
  Q 784.39 986.53 749.83 991.08
  C 712.51 995.99 673.62 989.76 638.87 975.86
  Q 637.17 975.18 635.58 974.85
  Q 633.90 974.50 632.18 974.18
  Q 631.15 972.50 630.17 972.07
  Q 601.22 959.40 578.51 937.49
  Q 569.36 928.65 561.29 918.83
  C 559.55 916.70 556.70 913.76 554.74 910.93
  Q 543.06 895.00 537.30 885.99
  Q 525.75 867.90 514.36 844.19
  Q 494.18 802.22 481.17 750.46
  L 473.11 716.31
  Q 476.68 699.42 477.83 683.91
  C 480.44 648.87 481.09 614.50 480.97 579.24
  C 480.96 576.07 480.98 572.74 482.18 569.80
  Q 486.96 558.07 494.48 549.93
  C 509.74 533.40 531.86 531.71 552.88 531.74
  Q 573.37 531.77 589.21 530.70
  C 612.91 529.10 633.55 521.40 650.78 504.41
  Q 662.55 492.80 671.89 477.96
  Q 683.84 458.96 694.62 439.51
  Q 700.70 428.54 707.95 421.70
  C 721.25 409.18 740.77 404.52 758.45 402.67
  Q 776.75 400.75 793.55 398.98
  Q 806.65 397.60 818.82 393.56
  C 827.11 390.81 836.24 386.35 842.45 379.96
  A 0.83 0.83 0.0 0 1 843.87 380.42
  Q 843.89 380.57 843.89 380.73
  Q 844.21 400.77 847.53 418.03
  Q 855.20 457.81 880.59 490.00
  Q 895.69 509.14 915.02 525.07
  Q 923.61 532.15 930.95 539.00
  Q 948.91 555.78 958.75 579.94
  C 969.84 607.13 971.10 637.22 971.55 667.00
  Q 972.08 702.60 973.01 718.51
  Z
  M 581.35 602.63
  Q 599.16 595.58 617.99 593.92
  Q 628.38 593.01 640.84 593.90
  C 646.13 594.28 650.32 593.41 653.45 588.97
  C 658.40 581.94 655.74 572.64 648.40 568.64
  Q 645.63 567.13 636.93 566.68
  Q 601.34 564.86 568.60 578.84
  C 563.44 581.04 559.66 583.33 558.17 589.00
  C 556.79 594.25 558.39 599.67 562.52 603.28
  C 568.77 608.74 574.69 605.26 581.35 602.63
  Z
  M 869.90 604.19
  C 876.09 606.90 882.10 607.37 886.80 601.50
  C 892.88 593.91 889.95 583.70 881.24 579.81
  Q 845.09 563.64 804.60 567.14
  C 786.88 568.67 787.51 595.57 806.12 593.98
  C 828.24 592.10 849.82 595.39 869.90 604.19
  Z
  M 621.2500 699.0200
  A 38.61 20.48 90.0 0 0 641.7300 660.4100
  A 38.61 20.48 90.0 0 0 621.2500 621.8000
  A 38.61 20.48 90.0 0 0 600.7700 660.4100
  A 38.61 20.48 90.0 0 0 621.2500 699.0200
  Z
  M 826.3900 699.0200
  A 38.62 20.47 90.0 0 0 846.8600 660.4000
  A 38.62 20.47 90.0 0 0 826.3900 621.7800
  A 38.62 20.47 90.0 0 0 805.9200 660.4000
  A 38.62 20.47 90.0 0 0 826.3900 699.0200
  Z
  M 625.06 701.32
  Q 623.44 701.58 621.96 701.50
  Q 620.38 701.42 618.36 700.76
  Q 616.04 700.00 613.83 699.83
  Q 594.00 698.28 574.36 703.96
  Q 564.99 706.67 555.66 712.73
  C 550.87 715.85 546.73 720.88 546.30 726.57
  C 545.82 732.92 550.41 738.80 555.77 742.38
  Q 566.63 749.62 581.42 752.80
  Q 590.61 754.78 598.36 755.19
  Q 606.59 755.64 615.79 755.36
  Q 633.00 754.85 648.89 748.98
  Q 653.37 747.32 657.78 744.79
  Q 663.10 741.75 665.82 738.73
  Q 676.82 726.50 664.44 715.13
  Q 660.48 711.49 654.82 708.60
  Q 643.49 702.83 629.99 701.24
  Q 627.44 700.94 625.06 701.32
  Z
  M 830.34 700.64
  Q 827.34 701.79 824.42 701.00
  Q 822.40 700.46 820.54 700.70
  Q 812.99 701.67 806.73 703.34
  Q 793.69 706.83 783.88 714.34
  Q 779.08 718.02 776.99 723.63
  C 776.28 725.56 776.37 729.38 777.10 731.29
  Q 779.58 737.82 785.30 741.86
  Q 796.75 749.95 814.35 753.35
  Q 819.55 754.36 823.96 754.80
  Q 833.40 755.74 845.99 755.40
  Q 863.15 754.95 879.62 748.80
  C 887.85 745.72 898.82 739.30 900.93 730.64
  C 904.27 716.94 885.34 707.63 874.18 704.27
  Q 855.41 698.63 835.63 699.52
  Q 832.94 699.64 830.34 700.64
  Z
  M 706.30 791.55
  C 702.32 786.77 706.15 780.87 708.41 776.32
  Q 709.32 774.50 710.41 772.98
  Q 718.56 761.60 724.24 752.41
  Q 729.15 744.48 731.11 737.34
  Q 732.48 732.33 727.82 729.13
  C 723.30 726.03 718.28 728.72 716.44 733.34
  Q 713.27 741.26 709.85 746.38
  Q 704.12 754.97 697.38 764.87
  C 690.80 774.52 685.38 787.17 692.33 798.37
  C 696.95 805.81 704.41 810.61 712.43 814.35
  C 717.99 816.94 722.11 819.78 726.58 815.39
  C 730.87 811.16 728.80 805.02 723.58 802.59
  C 717.37 799.69 710.58 796.71 706.30 791.55
  Z
  M 762.36 851.18
  Q 739.31 862.50 715.76 860.98
  C 699.78 859.96 685.95 854.30 673.13 844.84
  C 669.42 842.10 665.55 842.20 662.48 845.72
  C 658.78 849.95 660.74 854.97 664.96 857.93
  Q 698.14 881.21 737.46 875.24
  C 751.97 873.04 765.85 867.37 778.94 859.91
  C 784.00 857.02 788.88 854.15 786.28 847.47
  C 784.90 843.91 780.05 841.52 776.23 843.68
  Q 767.10 848.85 762.36 851.18
  Z"
/>
<path fill="#542d6d" d="
  M 581.35 602.63
  C 574.69 605.26 568.77 608.74 562.52 603.28
  C 558.39 599.67 556.79 594.25 558.17 589.00
  C 559.66 583.33 563.44 581.04 568.60 578.84
  Q 601.34 564.86 636.93 566.68
  Q 645.63 567.13 648.40 568.64
  C 655.74 572.64 658.40 581.94 653.45 588.97
  C 650.32 593.41 646.13 594.28 640.84 593.90
  Q 628.38 593.01 617.99 593.92
  Q 599.16 595.58 581.35 602.63
  Z"
/>
<path fill="#542d6d" d="
  M 869.90 604.19
  C 849.82 595.39 828.24 592.10 806.12 593.98
  C 787.51 595.57 786.88 568.67 804.60 567.14
  Q 845.09 563.64 881.24 579.81
  C 889.95 583.70 892.88 593.91 886.80 601.50
  C 882.10 607.37 876.09 606.90 869.90 604.19
  Z"
/>
<path fill="#f5a997" d="
  M 458.16 643.55
  Q 458.02 644.27 457.20 644.14
  Q 456.67 644.05 456.47 643.55
  Q 454.87 639.68 450.57 636.03
  C 447.37 633.31 443.20 633.15 440.15 636.27
  C 436.28 640.23 437.53 644.13 440.58 647.80
  Q 448.23 657.03 452.73 667.13
  A 1.00 1.00 0.0 0 1 451.79 668.53
  Q 443.88 668.36 436.61 669.26
  Q 433.89 669.60 431.61 670.90
  C 428.82 672.51 426.98 676.29 428.20 679.49
  C 429.67 683.36 432.47 685.07 436.80 684.83
  C 440.40 684.63 443.87 683.99 447.46 683.96
  Q 451.33 683.93 454.92 684.13
  Q 457.69 684.27 457.76 687.02
  Q 458.13 703.85 454.15 718.76
  C 452.83 723.73 454.91 728.65 460.20 729.60
  Q 464.62 730.39 467.70 725.92
  Q 468.49 724.78 469.63 720.93
  Q 470.19 719.02 472.15 717.12
  L 473.11 716.31
  L 481.17 750.46
  Q 472.77 761.14 460.82 763.02
  Q 459.31 763.26 456.70 763.27
  Q 454.41 763.27 452.56 763.37
  Q 449.51 762.38 446.79 761.41
  C 437.65 758.18 429.30 749.94 423.63 741.82
  C 412.88 726.42 405.80 705.67 404.09 685.85
  Q 403.50 679.08 403.25 672.17
  Q 402.29 645.95 413.38 622.71
  Q 415.30 618.68 419.88 612.95
  Q 426.56 604.59 436.94 601.18
  C 438.41 600.70 439.02 600.60 440.15 601.81
  C 450.92 613.34 455.94 627.83 458.16 643.55
  Z"
/>
<path fill="#f5a997" d="
  M 1034.73 614.25
  Q 1036.35 618.44 1038.50 622.70
  Q 1041.40 628.46 1042.37 631.07
  Q 1048.54 647.84 1048.96 666.02
  C 1049.57 691.95 1043.78 718.84 1029.51 740.34
  Q 1021.08 753.04 1009.27 759.74
  Q 1007.24 760.89 1004.90 761.52
  Q 1002.89 762.05 1001.24 763.00
  Q 991.09 764.36 983.21 760.61
  Q 974.33 756.37 968.62 747.13
  Q 968.32 746.64 967.75 746.77
  C 967.76 745.71 967.68 744.81 967.96 743.77
  Q 971.56 730.57 973.01 718.51
  Q 977.17 714.72 980.06 709.20
  Q 981.80 715.20 982.73 721.04
  Q 983.12 723.49 983.87 725.18
  C 986.77 731.68 996.34 730.78 998.16 723.98
  Q 998.72 721.85 998.01 719.11
  C 995.25 708.62 993.89 697.38 994.51 686.88
  Q 994.67 684.20 997.41 684.10
  Q 1007.06 683.73 1015.13 684.75
  Q 1019.98 685.37 1022.59 682.03
  C 1026.22 677.37 1023.58 671.21 1018.24 669.91
  Q 1011.62 668.29 1001.18 668.54
  Q 1000.19 668.56 999.47 667.98
  A 0.85 0.84 -57.6 0 1 999.25 666.95
  Q 1004.77 655.84 1011.81 647.42
  Q 1016.74 641.52 1012.12 636.60
  Q 1006.99 631.15 1001.20 636.41
  Q 995.66 641.46 992.52 649.85
  Q 992.02 651.19 990.64 650.89
  Q 991.60 642.22 993.39 633.78
  C 995.58 623.39 1001.00 608.42 1013.87 607.98
  Q 1014.52 607.96 1014.72 607.35
  L 1016.04 603.42
  Q 1016.74 601.34 1018.73 602.29
  Q 1028.20 606.82 1034.16 615.28
  Q 1034.49 615.74 1034.79 615.27
  Q 1035.11 614.79 1034.73 614.25
  Z"
/>
<ellipse fill="#2a2d6b" cx="0.00" cy="0.00" transform="translate(621.25,660.41) rotate(90.0)" rx="38.61" ry="20.48"/>
<ellipse fill="#2a2d6b" cx="0.00" cy="0.00" transform="translate(826.39,660.40) rotate(90.0)" rx="38.62" ry="20.47"/>
<path fill="#e9837b" d="
  M 458.16 643.55
  Q 460.32 656.90 462.16 670.33
  C 464.41 686.73 466.87 700.76 470.45 715.25
  Q 470.87 716.94 472.15 717.12
  Q 470.19 719.02 469.63 720.93
  Q 468.49 724.78 467.70 725.92
  Q 464.62 730.39 460.20 729.60
  C 454.91 728.65 452.83 723.73 454.15 718.76
  Q 458.13 703.85 457.76 687.02
  Q 457.69 684.27 454.92 684.13
  Q 451.33 683.93 447.46 683.96
  C 443.87 683.99 440.40 684.63 436.80 684.83
  C 432.47 685.07 429.67 683.36 428.20 679.49
  C 426.98 676.29 428.82 672.51 431.61 670.90
  Q 433.89 669.60 436.61 669.26
  Q 443.88 668.36 451.79 668.53
  A 1.00 1.00 0.0 0 0 452.73 667.13
  Q 448.23 657.03 440.58 647.80
  C 437.53 644.13 436.28 640.23 440.15 636.27
  C 443.20 633.15 447.37 633.31 450.57 636.03
  Q 454.87 639.68 456.47 643.55
  Q 456.67 644.05 457.20 644.14
  Q 458.02 644.27 458.16 643.55
  Z"
/>
<path fill="#e9837b" d="
  M 980.06 709.20
  Q 985.11 697.82 986.78 684.24
  Q 988.82 667.59 990.64 650.89
  Q 992.02 651.19 992.52 649.85
  Q 995.66 641.46 1001.20 636.41
  Q 1006.99 631.15 1012.12 636.60
  Q 1016.74 641.52 1011.81 647.42
  Q 1004.77 655.84 999.25 666.95
  A 0.85 0.84 -57.6 0 0 999.47 667.98
  Q 1000.19 668.56 1001.18 668.54
  Q 1011.62 668.29 1018.24 669.91
  C 1023.58 671.21 1026.22 677.37 1022.59 682.03
  Q 1019.98 685.37 1015.13 684.75
  Q 1007.06 683.73 997.41 684.10
  Q 994.67 684.20 994.51 686.88
  C 993.89 697.38 995.25 708.62 998.01 719.11
  Q 998.72 721.85 998.16 723.98
  C 996.34 730.78 986.77 731.68 983.87 725.18
  Q 983.12 723.49 982.73 721.04
  Q 981.80 715.20 980.06 709.20
  Z"
/>
<path fill="#f5a997" d="
  M 625.06 701.32
  Q 627.44 700.94 629.99 701.24
  Q 643.49 702.83 654.82 708.60
  Q 660.48 711.49 664.44 715.13
  Q 676.82 726.50 665.82 738.73
  Q 663.10 741.75 657.78 744.79
  Q 653.37 747.32 648.89 748.98
  Q 633.00 754.85 615.79 755.36
  Q 606.59 755.64 598.36 755.19
  Q 590.61 754.78 581.42 752.80
  Q 566.63 749.62 555.77 742.38
  C 550.41 738.80 545.82 732.92 546.30 726.57
  C 546.73 720.88 550.87 715.85 555.66 712.73
  Q 564.99 706.67 574.36 703.96
  Q 594.00 698.28 613.83 699.83
  Q 616.04 700.00 618.36 700.76
  Q 620.38 701.42 621.96 701.50
  Q 623.44 701.58 625.06 701.32
  Z"
/>
<path fill="#f5a997" d="
  M 830.34 700.64
  Q 832.94 699.64 835.63 699.52
  Q 855.41 698.63 874.18 704.27
  C 885.34 707.63 904.27 716.94 900.93 730.64
  C 898.82 739.30 887.85 745.72 879.62 748.80
  Q 863.15 754.95 845.99 755.40
  Q 833.40 755.74 823.96 754.80
  Q 819.55 754.36 814.35 753.35
  Q 796.75 749.95 785.30 741.86
  Q 779.58 737.82 777.10 731.29
  C 776.37 729.38 776.28 725.56 776.99 723.63
  Q 779.08 718.02 783.88 714.34
  Q 793.69 706.83 806.73 703.34
  Q 812.99 701.67 820.54 700.70
  Q 822.40 700.46 824.42 701.00
  Q 827.34 701.79 830.34 700.64
  Z"
/>
<path fill="#e9837b" d="
  M 708.41 776.32
  C 706.15 780.87 702.32 786.77 706.30 791.55
  C 710.58 796.71 717.37 799.69 723.58 802.59
  C 728.80 805.02 730.87 811.16 726.58 815.39
  C 722.11 819.78 717.99 816.94 712.43 814.35
  C 704.41 810.61 696.95 805.81 692.33 798.37
  C 685.38 787.17 690.80 774.52 697.38 764.87
  Q 704.12 754.97 709.85 746.38
  Q 713.27 741.26 716.44 733.34
  C 718.28 728.72 723.30 726.03 727.82 729.13
  Q 732.48 732.33 731.11 737.34
  Q 729.15 744.48 724.24 752.41
  Q 718.56 761.60 710.41 772.98
  Q 709.32 774.50 708.41 776.32
  Z"
/>
<path fill="#542d6d" d="
  M 967.75 746.77
  Q 968.32 746.64 968.62 747.13
  Q 974.33 756.37 983.21 760.61
  Q 991.09 764.36 1001.24 763.00
  Q 994.49 779.92 986.59 796.42
  Q 971.78 827.36 951.56 855.06
  Q 928.70 886.37 898.85 911.10
  Q 893.42 915.60 882.78 923.54
  Q 904.43 897.60 920.73 868.27
  Q 938.70 835.93 951.08 801.05
  Q 960.25 775.23 966.92 748.64
  Q 967.17 747.63 967.75 746.77
  Z"
/>
<path fill="#542d6d" d="
  M 481.17 750.46
  Q 494.18 802.22 514.36 844.19
  Q 525.75 867.90 537.30 885.99
  Q 543.06 895.00 554.74 910.93
  Q 517.60 879.66 491.20 838.80
  Q 471.80 808.77 459.21 778.55
  Q 454.46 767.14 452.56 763.37
  Q 454.41 763.27 456.70 763.27
  Q 459.31 763.26 460.82 763.02
  Q 472.77 761.14 481.17 750.46
  Z"
/>
<path fill="#e9837b" d="
  M 762.36 851.18
  Q 767.10 848.85 776.23 843.68
  C 780.05 841.52 784.90 843.91 786.28 847.47
  C 788.88 854.15 784.00 857.02 778.94 859.91
  C 765.85 867.37 751.97 873.04 737.46 875.24
  Q 698.14 881.21 664.96 857.93
  C 660.74 854.97 658.78 849.95 662.48 845.72
  C 665.55 842.20 669.42 842.10 673.13 844.84
  C 685.95 854.30 699.78 859.96 715.76 860.98
  Q 739.31 862.50 762.36 851.18
  Z"
/>
<path fill="#f5a997" d="
  M 819.54 972.66
  Q 819.46 973.76 819.33 974.73
  Q 817.35 990.20 817.56 1004.79
  Q 810.54 1008.15 803.80 1011.67
  Q 792.53 1017.57 790.15 1018.74
  Q 735.91 1045.39 678.75 1058.32
  Q 657.16 1063.21 629.21 1066.82
  Q 629.25 1061.48 630.57 1056.39
  Q 631.62 1052.36 631.72 1049.97
  C 632.04 1042.92 633.54 1035.64 633.99 1029.04
  Q 634.75 1017.99 634.11 988.62
  C 634.02 984.54 633.70 978.24 632.18 974.18
  Q 633.90 974.50 635.58 974.85
  Q 637.17 975.18 638.87 975.86
  C 673.62 989.76 712.51 995.99 749.83 991.08
  Q 784.39 986.53 815.39 973.15
  Q 816.81 972.54 819.54 972.66
  Z"
/>
<path fill="#f9c5b8" d="
  M 817.56 1004.79
  Q 817.31 1020.69 818.00 1030.75
  Q 818.70 1040.93 820.98 1055.25
  Q 824.46 1077.20 833.53 1097.48
  Q 834.18 1098.95 837.58 1103.52
  Q 835.43 1103.67 834.23 1104.47
  Q 792.00 1132.69 741.36 1134.66
  C 705.52 1136.06 668.52 1127.85 636.04 1113.16
  Q 627.48 1109.29 617.01 1103.90
  Q 616.10 1103.43 614.81 1103.50
  C 615.78 1101.39 617.50 1099.74 618.39 1097.82
  Q 623.62 1086.66 626.05 1077.75
  Q 628.28 1069.58 629.21 1066.82
  Q 657.16 1063.21 678.75 1058.32
  Q 735.91 1045.39 790.15 1018.74
  Q 792.53 1017.57 803.80 1011.67
  Q 810.54 1008.15 817.56 1004.79
  Z"
/>
<path fill="#f1f8ff" d="
  M 39.57 1405.70
  A 0.63 0.62 -3.7 0 0 40.19 1406.24
  L 389.47 1406.24
  A 0.52 0.52 0.0 0 1 389.99 1406.76
  L 390.01 1430.31
  A 0.57 0.57 0.0 0 1 389.44 1430.88
  L 15.29 1430.88
  Q 14.96 1430.88 14.96 1430.54
  L 14.96 1054.75
  Q 14.96 1054.20 15.51 1054.20
  L 39.00 1054.26
  A 0.29 0.29 0.0 0 1 39.29 1054.55
  Q 39.19 1232.32 39.34 1402.37
  Q 39.34 1403.97 39.57 1405.70
  Z"
/>
<path fill="#f1f8ff" d="
  M 1413.22 1405.85
  L 1413.22 1054.63
  A 0.39 0.39 0.0 0 1 1413.61 1054.24
  L 1437.36 1054.22
  A 0.39 0.39 0.0 0 1 1437.75 1054.61
  L 1437.75 1430.49
  A 0.39 0.39 0.0 0 1 1437.36 1430.88
  L 1064.29 1430.88
  A 0.39 0.39 0.0 0 1 1063.90 1430.49
  L 1063.98 1406.63
  A 0.39 0.39 0.0 0 1 1064.37 1406.24
  L 1412.83 1406.24
  A 0.39 0.39 0.0 0 0 1413.22 1405.85
  Z"
/>
<path fill="#4e5da7" d="
  M 614.81 1103.50
  Q 616.10 1103.43 617.01 1103.90
  Q 627.48 1109.29 636.04 1113.16
  C 668.52 1127.85 705.52 1136.06 741.36 1134.66
  Q 792.00 1132.69 834.23 1104.47
  Q 835.43 1103.67 837.58 1103.52
  Q 875.48 1125.17 913.66 1146.60
  C 915.26 1147.50 917.02 1148.18 918.53 1149.09
  Q 925.93 1153.51 939.85 1161.39
  Q 1077.12 1239.00 1217.94 1318.56
  Q 1222.15 1320.94 1226.07 1323.75
  Q 1247.70 1339.29 1263.57 1360.68
  Q 1268.41 1367.20 1273.20 1374.06
  L 179.06 1374.06
  C 191.28 1356.06 204.02 1340.47 220.87 1327.56
  Q 227.15 1322.75 237.69 1316.80
  Q 426.31 1210.25 614.81 1103.50
  Z"
/>
</svg>
