<?xml version="1.0" encoding="UTF-8" standalone="no"?>
<!DOCTYPE svg PUBLIC "-//W3C//DTD SVG 1.1//EN" "http://www.w3.org/Graphics/SVG/1.1/DTD/svg11.dtd">
<svg xmlns="http://www.w3.org/2000/svg" version="1.1" viewBox="0.00 0.00 1966.00 1066.00">
<g stroke-width="2.00" fill="none" stroke-linecap="butt">
<path stroke="#dfe8f2" vector-effect="non-scaling-stroke" d="
  M 912.04 179.47
  Q 910.39 180.08 909.89 181.56
  Q 909.73 182.03 909.38 182.38
  Q 908.45 183.35 908.73 184.98"
/>
<path stroke="#878e96" vector-effect="non-scaling-stroke" d="
  M 908.73 184.98
  Q 908.62 234.68 908.75 284.43
  Q 908.76 287.91 909.69 289.89
  Q 911.04 292.74 913.91 294.24
  Q 915.94 295.30 921.46 295.30
  Q 1351.63 295.37 1781.79 295.32"
/>
<path stroke="#dfe8f2" vector-effect="non-scaling-stroke" d="
  M 1781.79 295.32
  Q 1784.99 295.33 1786.47 293.01"
/>
<path stroke="#878e96" vector-effect="non-scaling-stroke" d="
  M 1786.47 293.01
  Q 1789.96 289.92 1789.96 285.75
  Q 1789.96 237.48 1789.97 189.21
  C 1789.97 184.03 1789.09 180.35 1784.41 178.01
  Q 1782.38 177.00 1775.83 177.00
  Q 1346.66 177.00 917.50 177.00
  Q 914.95 177.00 912.04 179.47"
/>
<path stroke="#757e89" vector-effect="non-scaling-stroke" d="
  M 1786.47 293.01
  L 1781.79 295.32"
/>
<path stroke="#757e89" vector-effect="non-scaling-stroke" d="
  M 908.73 184.98
  L 912.04 179.47"
/>
<path stroke="#a0abd3" vector-effect="non-scaling-stroke" d="
  M 226.46 896.78
  L 796.76 896.78"
/>
<path stroke="#dfe8f2" vector-effect="non-scaling-stroke" d="
  M 796.76 896.78
  Q 804.98 897.18 810.51 896.62
  C 821.73 895.48 831.69 887.01 834.95 876.12
  Q 836.30 871.65 836.30 863.63
  Q 836.20 526.58 836.25 209.80
  Q 836.26 204.44 835.37 200.38
  C 832.54 187.45 820.33 178.01 807.06 178.01
  Q 510.10 177.97 216.58 178.03
  C 200.14 178.04 187.76 192.04 187.76 207.70
  Q 187.75 546.51 187.77 867.01
  C 187.77 882.81 200.18 896.79 216.49 896.75
  Q 221.50 896.74 226.46 896.78"
/>
<path stroke="#8e9bc6" vector-effect="non-scaling-stroke" d="
  M 796.76 896.78
  Q 797.12 884.41 795.76 872.51
  C 792.63 844.88 779.03 816.69 757.25 800.12
  Q 754.90 798.33 752.23 796.82
  Q 659.01 744.13 565.74 691.40"
/>
<path stroke="#e3cfce" vector-effect="non-scaling-stroke" d="
  M 565.74 691.40
  Q 561.71 684.06 559.62 675.23
  Q 557.40 665.85 556.76 657.25
  Q 556.40 652.45 556.40 643.11"
/>
<path stroke="#e1c1be" vector-effect="non-scaling-stroke" d="
  M 556.40 643.11
  L 557.28 627.68"
/>
<path stroke="#e3cfce" vector-effect="non-scaling-stroke" d="
  M 557.28 627.68
  Q 558.60 626.33 559.73 625.76
  Q 569.63 620.77 578.15 613.66
  Q 580.92 611.35 588.58 603.32"
/>
<path stroke="#9183a9" vector-effect="non-scaling-stroke" d="
  M 588.58 603.32
  Q 606.52 590.43 619.76 573.02
  Q 631.11 558.10 639.11 541.13
  Q 640.83 537.50 646.01 525.49"
/>
<path stroke="#e1c1be" vector-effect="non-scaling-stroke" d="
  M 646.01 525.49
  Q 655.43 522.01 660.63 512.89
  Q 670.04 496.39 669.16 477.23
  Q 668.56 464.08 662.39 453.71"
/>
<path stroke="#9183a9" vector-effect="non-scaling-stroke" d="
  M 662.39 453.71
  C 662.61 447.22 663.22 440.77 663.42 434.46
  Q 664.46 402.45 659.97 371.66
  Q 654.77 335.94 629.94 308.91
  Q 618.64 296.61 603.67 287.29
  Q 602.64 286.65 602.32 285.46
  C 595.40 259.59 576.62 246.43 551.43 241.37
  C 541.76 239.43 533.33 241.16 523.67 244.12
  C 507.14 249.19 495.48 259.18 486.63 273.66
  A 0.71 0.71 0.0 0 1 485.74 273.94
  C 472.84 268.17 459.49 264.39 445.45 264.92
  C 411.98 266.18 390.73 293.80 379.94 322.99
  Q 378.50 326.88 377.32 331.24
  C 376.50 334.27 371.89 337.43 369.91 339.96
  Q 362.65 349.20 359.41 361.56
  C 354.60 379.87 354.91 400.69 359.62 418.98
  Q 360.51 422.44 360.54 426.49
  Q 360.61 439.50 361.96 452.49"
/>
<path stroke="#e1c1be" vector-effect="non-scaling-stroke" d="
  M 361.96 452.49
  Q 355.48 461.93 354.37 473.33
  Q 353.76 479.54 354.53 487.63
  C 355.54 498.29 359.14 508.96 365.88 517.38
  Q 370.69 523.39 378.30 525.67"
/>
<path stroke="#9183a9" vector-effect="non-scaling-stroke" d="
  M 378.30 525.67
  Q 385.93 544.93 397.08 562.43
  Q 409.50 581.93 427.26 596.64"
/>
<path stroke="#e3cfce" vector-effect="non-scaling-stroke" d="
  M 427.26 596.64
  Q 442.14 616.90 464.51 627.27
  Q 465.11 627.55 465.99 628.72"
/>
<path stroke="#e1c1be" vector-effect="non-scaling-stroke" d="
  M 465.99 628.72
  Q 466.68 631.77 466.87 634.90
  Q 468.03 653.74 464.28 673.50"
/>
<path stroke="#e3cfce" vector-effect="non-scaling-stroke" d="
  M 464.28 673.50
  Q 462.33 682.63 457.80 691.28"
/>
<path stroke="#8e9bc6" vector-effect="non-scaling-stroke" d="
  M 457.80 691.28
  Q 367.82 742.28 277.56 793.21
  Q 267.20 799.05 262.64 802.90
  Q 255.83 808.64 250.28 815.89
  C 232.34 839.34 225.50 867.47 226.46 896.78"
/>
<path stroke="#a491b0" vector-effect="non-scaling-stroke" d="
  M 565.74 691.40
  Q 562.87 693.01 560.02 694.72
  C 528.25 713.69 489.03 708.45 457.80 691.28"
/>
<path stroke="#f7b7a8" vector-effect="non-scaling-stroke" d="
  M 632.13 503.66
  L 629.61 517.09"
/>
<path stroke="#a77993" vector-effect="non-scaling-stroke" d="
  M 629.61 517.09
  Q 623.20 542.72 612.67 565.20
  Q 603.25 585.31 588.58 603.32"
/>
<path stroke="#f7b7a8" vector-effect="non-scaling-stroke" d="
  M 557.28 627.68
  Q 555.07 628.09 549.68 630.14
  Q 508.95 645.61 468.02 628.76
  Q 467.26 628.45 465.99 628.72"
/>
<path stroke="#a77993" vector-effect="non-scaling-stroke" d="
  M 427.26 596.64
  Q 427.25 596.63 427.24 596.61
  Q 406.81 568.39 396.62 535.03
  Q 394.23 527.20 392.09 519.27"
/>
<path stroke="#f7b7a8" vector-effect="non-scaling-stroke" d="
  M 392.09 519.27
  L 388.22 502.76"
/>
<path stroke="#a56b82" vector-effect="non-scaling-stroke" d="
  M 392.09 519.27
  Q 386.75 526.20 378.30 525.67"
/>
<path stroke="#f7b7a8" vector-effect="non-scaling-stroke" d="
  M 556.40 643.11
  Q 532.91 656.19 507.23 664.41
  Q 486.42 671.06 464.28 673.50"
/>
<path stroke="#a56b82" vector-effect="non-scaling-stroke" d="
  M 662.39 453.71
  Q 658.93 448.96 654.20 447.01
  Q 653.53 446.74 653.36 447.44
  Q 652.88 449.51 650.96 449.98
  C 644.81 451.49 642.35 459.08 641.58 464.68
  Q 640.28 474.21 639.33 483.70
  Q 638.70 489.96 636.98 496.01
  Q 635.65 500.67 632.13 503.66"
/>
<path stroke="#a77993" vector-effect="non-scaling-stroke" d="
  M 632.13 503.66
  Q 631.56 483.50 630.79 464.26
  Q 630.36 453.56 628.17 444.97
  C 624.83 431.87 617.89 420.84 607.57 412.45
  C 594.76 402.05 583.44 390.22 576.58 374.99
  Q 569.03 358.24 569.25 338.77
  A 0.41 0.40 -20.8 0 0 568.57 338.47
  C 562.30 344.32 553.24 346.84 544.66 347.76
  Q 535.92 348.71 527.62 349.57
  C 518.68 350.49 508.93 353.03 502.57 359.18
  Q 498.46 363.15 493.89 371.76
  C 485.73 387.15 474.87 404.97 457.00 409.98
  C 446.67 412.88 436.00 412.54 425.17 412.65
  C 411.02 412.79 399.74 415.49 393.23 429.88
  Q 392.09 432.39 392.11 435.54
  C 392.18 455.40 391.70 475.32 389.73 494.75
  Q 389.48 497.27 388.22 502.76"
/>
<path stroke="#a56b82" vector-effect="non-scaling-stroke" d="
  M 388.22 502.76
  Q 386.96 503.36 386.61 501.76
  Q 383.67 488.43 380.87 466.57
  Q 379.40 455.10 372.21 446.68
  A 1.23 1.22 60.4 0 0 370.89 446.31
  Q 365.60 448.05 361.96 452.49"
/>
<path stroke="#a56b82" vector-effect="non-scaling-stroke" d="
  M 646.01 525.49
  Q 635.67 526.75 629.61 517.09"
/>
<path stroke="#a393b6" vector-effect="non-scaling-stroke" d="
  M 1331.50 411.29
  Q 1332.93 411.04 1333.99 410.04"
/>
<path stroke="#a0abd3" vector-effect="non-scaling-stroke" d="
  M 1333.99 410.04
  Q 1335.48 409.32 1336.22 407.56"
/>
<path stroke="#878e96" vector-effect="non-scaling-stroke" d="
  M 1336.22 407.56
  Q 1338.02 404.90 1338.02 403.00
  Q 1338.04 373.12 1338.02 341.71
  Q 1338.02 336.90 1336.67 334.55
  Q 1333.80 329.57 1327.93 329.57
  Q 1124.57 329.56 920.07 329.55
  C 913.54 329.55 908.66 332.93 908.67 339.92
  Q 908.73 371.01 908.67 401.54
  C 908.66 405.28 910.56 408.74 913.72 410.60
  Q 915.72 411.77 920.06 411.77
  Q 1125.42 411.65 1329.37 411.78
  Q 1329.88 411.78 1330.51 411.59
  Q 1331.05 411.42 1331.50 411.29"
/>
<path stroke="#35416a" vector-effect="non-scaling-stroke" d="
  M 1336.22 407.56
  Q 1334.65 408.59 1333.69 409.92"
/>
<path stroke="#38294d" vector-effect="non-scaling-stroke" d="
  M 1333.69 409.92
  Q 1331.52 409.86 1331.50 411.29"
/>
<path stroke="#51458a" vector-effect="non-scaling-stroke" d="
  M 1333.99 410.04
  Q 1333.84 409.98 1333.69 409.92"
/>
<path stroke="#878e96" vector-effect="non-scaling-stroke" d="
  M 1384.50 332.95
  Q 1381.08 335.94 1381.08 341.00
  Q 1381.06 374.29 1381.01 402.25
  C 1381.00 407.20 1384.49 412.69 1390.00 412.70
  Q 1584.92 412.77 1780.74 412.71
  C 1784.33 412.71 1787.24 410.49 1788.88 407.40
  Q 1789.96 405.36 1789.96 399.68
  Q 1789.97 370.75 1789.96 339.75
  Q 1789.96 336.65 1787.27 333.54"
/>
<path stroke="#dfe8f2" vector-effect="non-scaling-stroke" d="
  M 1787.27 333.54
  Q 1785.42 330.46 1781.29 330.53"
/>
<path stroke="#878e96" vector-effect="non-scaling-stroke" d="
  M 1781.29 330.53
  L 1389.71 330.53"
/>
<path stroke="#dfe8f2" vector-effect="non-scaling-stroke" d="
  M 1389.71 330.53
  Q 1386.25 330.32 1384.50 332.95"
/>
<path stroke="#757e89" vector-effect="non-scaling-stroke" d="
  M 1389.71 330.53
  L 1384.50 332.95"
/>
<path stroke="#757e89" vector-effect="non-scaling-stroke" d="
  M 1781.29 330.53
  L 1787.27 333.54"
/>
<path stroke="#dfe8f2" vector-effect="non-scaling-stroke" d="
  M 908.70 519.97
  Q 909.37 525.79 913.94 527.05"
/>
<path stroke="#878e96" vector-effect="non-scaling-stroke" d="
  M 913.94 527.05
  Q 916.92 528.10 917.75 528.10
  Q 1192.00 528.10 1466.26 528.10
  C 1472.06 528.10 1476.58 528.73 1480.40 523.46
  Q 1481.83 521.48 1481.82 518.98
  Q 1481.80 491.82 1481.84 459.14
  C 1481.85 452.93 1477.21 448.79 1471.25 448.80
  Q 1193.47 449.08 919.08 448.82
  C 914.45 448.81 908.73 452.73 908.71 458.00
  Q 908.66 470.46 908.70 519.97"
/>
<path stroke="#757e89" vector-effect="non-scaling-stroke" d="
  M 913.94 527.05
  Q 910.21 524.39 908.70 519.97"
/>
<path stroke="#878e96" vector-effect="non-scaling-stroke" d="
  M 1427.03 580.00
  A 9.81 9.81 0.0 0 0 1417.22 570.19
  L 918.50 570.19
  A 9.81 9.81 0.0 0 0 908.69 580.00
  L 908.69 634.68
  A 9.81 9.81 0.0 0 0 918.50 644.49
  L 1417.22 644.49
  A 9.81 9.81 0.0 0 0 1427.03 634.68
  L 1427.03 580.00"
/>
<path stroke="#dfe8f2" vector-effect="non-scaling-stroke" d="
  M 1531.75 887.54
  Q 1531.15 891.19 1533.11 892.12"
/>
<path stroke="#878e96" vector-effect="non-scaling-stroke" d="
  M 1533.11 892.12
  Q 1534.52 894.69 1537.36 895.95
  Q 1539.24 896.79 1541.24 896.79
  Q 1660.19 896.75 1779.66 896.82
  C 1785.80 896.82 1790.00 892.58 1789.99 886.45
  Q 1789.89 763.39 1789.95 618.14
  C 1789.95 612.67 1785.64 608.28 1780.11 608.28
  Q 1661.74 608.28 1541.67 608.28
  Q 1536.00 608.28 1533.10 613.21
  Q 1531.76 615.49 1531.76 620.08
  Q 1531.72 753.81 1531.75 887.54"
/>
<path stroke="#757e89" vector-effect="non-scaling-stroke" d="
  M 1533.11 892.12
  L 1531.75 887.54"
/>
<path stroke="#a0abd3" vector-effect="non-scaling-stroke" d="
  M 908.76 756.35
  Q 909.86 760.69 913.00 762.15"
/>
<path stroke="#878e96" vector-effect="non-scaling-stroke" d="
  M 913.00 762.15
  Q 915.00 763.78 916.75 763.78
  Q 1035.86 763.77 1154.98 763.79
  Q 1159.24 763.79 1161.19 763.29
  Q 1164.90 762.33 1166.92 758.23
  Q 1168.00 756.07 1167.96 750.72
  Q 1167.77 723.80 1167.87 696.74
  C 1167.89 690.79 1163.48 686.52 1157.70 686.52
  Q 1038.36 686.52 919.05 686.52
  C 915.33 686.52 911.84 688.19 909.96 691.46
  Q 908.72 693.59 908.71 698.51
  Q 908.64 727.65 908.76 756.35"
/>
<path stroke="#35416a" vector-effect="non-scaling-stroke" d="
  M 913.00 762.15
  L 908.76 756.35"
/>
<path stroke="#878e96" vector-effect="non-scaling-stroke" d="
  M 1427.03 696.35
  A 9.83 9.83 0.0 0 0 1417.20 686.52
  L 1229.56 686.52
  A 9.83 9.83 0.0 0 0 1219.73 696.35
  L 1219.73 753.95
  A 9.83 9.83 0.0 0 0 1229.56 763.78
  L 1417.20 763.78
  A 9.83 9.83 0.0 0 0 1427.03 753.95
  L 1427.03 696.35"
/>
<path stroke="#dfe8f2" vector-effect="non-scaling-stroke" d="
  M 1084.39 893.45
  Q 1086.36 894.62 1088.93 899.30"
/>
<path stroke="#878e96" vector-effect="non-scaling-stroke" d="
  M 1088.93 899.30
  Q 1088.69 898.17 1089.71 899.34"
/>
<path stroke="#a0abd3" vector-effect="non-scaling-stroke" d="
  M 1089.71 899.34
  Q 1090.14 899.39 1090.82 899.39
  Q 1091.37 899.38 1091.87 899.14
  Q 1095.73 897.26 1099.44 894.91"
/>
<path stroke="#878e96" vector-effect="non-scaling-stroke" d="
  M 1099.44 894.91
  L 1112.18 890.25
  Q 1112.79 890.03 1112.52 890.62
  Q 1111.21 893.62 1112.06 897.00
  C 1112.61 899.19 1114.76 899.98 1116.79 899.24
  Q 1120.08 898.04 1122.61 896.29
  Q 1126.37 893.69 1130.92 892.29
  C 1135.84 890.78 1137.01 895.99 1139.75 898.30
  Q 1144.13 901.97 1149.40 901.64
  C 1157.79 901.12 1166.39 901.26 1174.74 900.37
  Q 1211.07 896.48 1247.89 890.16
  C 1248.73 890.02 1249.62 890.15 1250.37 889.91
  Q 1251.11 889.68 1251.88 889.55
  Q 1272.80 886.13 1292.85 884.69
  Q 1299.24 884.23 1305.61 883.45
  Q 1312.03 882.66 1318.29 881.85
  Q 1320.85 881.52 1322.85 880.34
  Q 1324.67 879.27 1324.21 877.21
  Q 1324.08 876.64 1323.74 876.20
  Q 1322.29 874.32 1320.41 875.77
  Q 1317.57 877.94 1313.25 878.45
  Q 1296.18 880.47 1284.04 881.17
  Q 1270.87 881.92 1248.04 886.22
  Q 1216.22 892.20 1183.37 895.52
  Q 1175.05 896.36 1165.68 896.65
  Q 1156.58 896.93 1147.51 896.73
  C 1145.73 896.69 1143.98 896.28 1142.89 894.74
  C 1139.94 890.57 1136.03 886.96 1130.53 887.91
  C 1125.43 888.78 1121.31 891.84 1117.03 894.78
  Q 1116.26 895.30 1116.52 894.41
  C 1117.71 890.21 1121.05 886.01 1124.83 883.79
  Q 1131.40 879.92 1138.42 874.14
  Q 1150.54 864.16 1160.28 854.79
  C 1162.68 852.49 1164.75 849.93 1167.16 847.64
  C 1168.54 846.33 1169.20 844.67 1170.55 843.34
  Q 1171.88 842.02 1172.91 840.17
  Q 1175.39 835.75 1175.78 834.30
  Q 1176.44 831.85 1175.00 829.67"
/>
<path stroke="#dfe8f2" vector-effect="non-scaling-stroke" d="
  M 1175.00 829.67
  Q 1172.93 826.82 1169.14 830.18"
/>
<path stroke="#878e96" vector-effect="non-scaling-stroke" d="
  M 1169.14 830.18
  Q 1158.25 839.23 1148.30 849.81
  Q 1136.31 862.56 1124.56 875.54
  Q 1122.58 877.72 1121.10 879.56
  Q 1119.41 881.68 1117.91 882.44
  C 1115.09 883.87 1112.38 885.38 1109.43 886.50
  Q 1100.32 889.96 1092.05 893.35
  Q 1091.60 893.54 1091.46 893.07
  Q 1091.37 892.75 1091.52 892.32"
/>
<path stroke="#a0abd3" vector-effect="non-scaling-stroke" d="
  M 1091.52 892.32
  Q 1091.18 890.56 1089.54 889.78"
/>
<path stroke="#878e96" vector-effect="non-scaling-stroke" d="
  M 1089.54 889.78
  Q 1087.21 888.06 1084.47 888.45
  Q 1083.74 888.56 1083.48 887.86
  C 1082.10 884.09 1078.91 883.91 1075.74 885.51
  Q 1075.19 885.79 1075.49 885.25
  C 1076.79 882.90 1078.41 878.34 1075.98 876.22"
/>
<path stroke="#a0abd3" vector-effect="non-scaling-stroke" d="
  M 1075.98 876.22
  Q 1074.65 874.70 1071.55 876.01"
/>
<path stroke="#878e96" vector-effect="non-scaling-stroke" d="
  M 1071.55 876.01
  Q 1070.54 876.33 1069.94 877.04
  Q 1069.63 877.40 1069.41 876.98
  L 1069.28 876.74
  A 0.82 0.81 -37.4 0 1 1069.41 875.79
  Q 1073.02 871.96 1077.70 868.90
  Q 1086.99 862.84 1095.78 856.83
  Q 1103.85 851.31 1108.79 846.48
  Q 1110.21 845.09 1111.67 843.92
  Q 1112.82 843.00 1113.82 842.04
  Q 1126.14 830.27 1139.91 815.41
  C 1143.68 811.34 1140.25 808.36 1136.14 808.12
  Q 1128.22 807.64 1119.54 808.51
  Q 1101.92 810.27 1085.56 815.33
  Q 1044.61 828.01 1007.40 851.72
  Q 994.00 860.26 983.38 870.38
  Q 975.02 878.34 968.45 889.06
  C 965.41 894.03 962.53 901.31 970.15 904.14
  Q 972.76 905.11 978.50 904.64
  C 979.95 904.52 980.92 903.90 982.33 903.68
  Q 983.18 903.55 982.49 904.06
  Q 974.39 909.98 966.04 916.59
  Q 957.13 923.66 949.90 930.95
  Q 948.58 932.29 947.93 934.16
  Q 947.43 935.61 948.95 935.85
  Q 951.90 936.30 954.11 935.39
  C 957.29 934.09 960.54 932.69 963.55 930.98
  Q 997.50 911.65 1031.27 890.67
  C 1031.89 890.29 1032.59 890.15 1033.25 889.88
  Q 1033.70 889.70 1033.94 889.28
  C 1034.43 888.38 1035.48 888.08 1036.32 887.56
  Q 1041.85 884.10 1047.39 880.65
  Q 1060.32 872.59 1070.93 863.97
  C 1073.58 861.82 1076.62 859.68 1079.59 857.98
  Q 1090.97 851.46 1100.02 845.76
  Q 1102.23 844.36 1104.35 842.38
  A 2.01 2.00 -42.5 0 0 1104.48 839.59
  L 1104.18 839.25
  Q 1102.56 837.43 1100.58 838.85
  C 1094.67 843.10 1088.63 847.53 1082.11 851.18
  Q 1072.50 856.54 1068.32 859.92
  Q 1052.88 872.41 1035.08 882.83
  C 1033.21 883.92 1031.65 885.39 1029.62 886.06
  C 1028.86 886.30 1028.51 887.05 1027.81 887.48
  Q 993.80 908.41 962.91 926.08
  Q 961.78 926.74 960.56 927.32
  Q 958.96 928.09 960.34 926.97
  Q 976.26 914.16 993.82 901.35
  Q 996.42 899.45 999.37 898.45
  C 1006.76 895.96 1014.07 892.99 1019.68 887.83
  C 1021.26 886.38 1023.19 883.76 1022.62 881.47
  Q 1022.20 879.81 1020.52 880.13
  C 1018.80 880.47 1017.30 880.89 1015.76 881.72
  Q 1004.73 887.72 993.82 895.51
  Q 992.64 896.35 991.20 896.83
  Q 984.12 899.17 977.96 900.29
  Q 975.08 900.81 972.11 900.27
  A 2.23 2.23 0.0 0 1 970.27 898.04
  C 970.31 895.97 971.01 893.71 972.04 891.93
  C 982.76 873.26 1001.15 859.87 1019.42 849.36
  C 1042.31 836.18 1066.85 825.13 1092.26 817.99
  Q 1114.05 811.87 1135.86 812.00
  Q 1136.52 812.00 1136.02 812.43
  Q 1134.80 813.50 1133.70 814.69
  Q 1122.60 826.77 1112.48 836.68
  C 1110.85 838.27 1109.02 839.53 1107.56 841.29
  C 1106.74 842.27 1105.68 842.72 1104.79 843.58
  Q 1100.14 848.12 1094.57 851.92
  C 1086.17 857.64 1077.01 863.19 1068.90 869.73
  Q 1065.12 872.79 1063.86 876.93
  A 3.13 3.13 0.0 0 0 1065.55 880.68
  Q 1068.51 882.05 1072.40 880.76
  Q 1072.55 880.71 1072.44 880.81
  Q 1071.57 881.63 1071.10 882.62
  Q 1069.58 885.85 1067.64 889.59
  Q 1066.38 892.02 1066.71 893.63
  C 1067.22 896.18 1069.18 896.31 1071.16 895.07
  Q 1074.51 892.98 1077.53 890.41
  Q 1078.83 889.30 1078.83 891.01
  Q 1078.84 893.32 1080.78 894.35
  Q 1081.24 894.59 1081.72 894.42
  L 1084.39 893.45"
/>
<path stroke="#35416a" vector-effect="non-scaling-stroke" d="
  M 1071.55 876.01
  Q 1073.92 876.51 1075.98 876.22"
/>
<path stroke="#35416a" vector-effect="non-scaling-stroke" d="
  M 1089.54 889.78
  Q 1090.18 891.78 1091.52 892.32"
/>
<path stroke="#757e89" vector-effect="non-scaling-stroke" d="
  M 1169.14 830.18
  Q 1172.64 828.55 1175.00 829.67"
/>
<path stroke="#35416a" vector-effect="non-scaling-stroke" d="
  M 1099.44 894.91
  L 1089.71 899.34"
/>
<path stroke="#757e89" vector-effect="non-scaling-stroke" d="
  M 1088.93 899.30
  Q 1088.06 895.76 1086.51 893.47
  A 0.93 0.91 71.2 0 0 1085.72 893.07
  Q 1084.69 893.11 1084.39 893.45"
/>
<path stroke="#a77993" vector-effect="non-scaling-stroke" d="
  M 434.19 435.82
  C 425.29 439.64 429.87 452.08 439.42 447.90
  C 448.83 443.77 459.44 441.90 470.20 442.84
  C 479.64 443.66 479.65 430.59 470.94 429.84
  Q 451.88 428.21 434.19 435.82"
/>
<path stroke="#a77993" vector-effect="non-scaling-stroke" d="
  M 582.38 448.12
  C 591.09 451.90 595.22 439.52 587.75 436.16
  Q 570.17 428.25 550.12 429.84
  C 546.02 430.17 543.11 433.71 543.81 437.76
  C 544.61 442.38 547.89 443.12 552.08 442.82
  C 562.58 442.07 572.71 443.92 582.38 448.12"
/>
<path stroke="#a77993" vector-effect="non-scaling-stroke" d="
  M 460.5100 494.1800
  A 18.84 10.03 90.0 0 0 470.5400 475.3400
  A 18.84 10.03 90.0 0 0 460.5100 456.5000
  A 18.84 10.03 90.0 0 0 450.4800 475.3400
  A 18.84 10.03 90.0 0 0 460.5100 494.1800"
/>
<path stroke="#a77993" vector-effect="non-scaling-stroke" d="
  M 560.6100 494.1600
  A 18.82 10.01 90.0 0 0 570.6200 475.3400
  A 18.82 10.01 90.0 0 0 560.6100 456.5200
  A 18.82 10.01 90.0 0 0 550.6000 475.3400
  A 18.82 10.01 90.0 0 0 560.6100 494.1600"
/>
<path stroke="#f7b7a8" vector-effect="non-scaling-stroke" d="
  M 460.85 495.78
  C 458.91 495.96 457.00 494.71 455.02 494.62
  Q 441.93 494.03 431.16 499.32
  Q 427.63 501.04 425.56 503.77
  Q 422.78 507.41 424.94 511.39
  C 428.27 517.54 439.54 520.57 445.94 521.23
  C 456.10 522.27 466.23 521.78 475.73 517.75
  C 480.05 515.92 485.78 512.00 484.52 506.60
  C 483.80 503.53 480.11 500.60 477.38 499.16
  Q 469.42 494.97 460.85 495.78"
/>
<path stroke="#f7b7a8" vector-effect="non-scaling-stroke" d="
  M 562.58 495.46
  C 560.18 496.02 557.73 495.26 555.37 495.54
  C 549.79 496.21 539.71 499.53 537.06 505.17
  C 533.88 511.95 542.27 516.79 547.73 518.75
  Q 552.82 520.58 557.40 521.12
  C 569.10 522.48 583.41 521.97 593.15 514.77
  C 599.23 510.27 597.72 504.30 592.05 500.56
  C 584.66 495.66 574.42 494.18 565.63 494.58
  C 564.50 494.63 563.70 495.21 562.58 495.46"
/>
<path stroke="#f7b7a8" vector-effect="non-scaling-stroke" d="
  M 501.70 538.71
  C 500.49 536.89 501.70 534.16 502.71 532.51
  C 506.66 526.05 511.45 520.54 514.16 513.23
  A 3.10 3.08 42.6 0 0 514.05 510.79
  Q 512.88 508.32 511.17 508.24
  Q 508.01 508.10 506.87 511.06
  C 504.25 517.86 498.68 524.05 495.68 529.65
  C 489.45 541.27 498.39 548.13 508.04 551.81
  C 512.08 553.35 515.20 547.72 511.64 545.42
  C 508.15 543.16 504.11 542.34 501.70 538.71"
/>
<path stroke="#f7b7a8" vector-effect="non-scaling-stroke" d="
  M 502.28 580.19
  C 515.13 582.40 528.77 578.38 539.65 571.35
  Q 542.00 569.83 541.33 567.12
  C 540.65 564.37 537.96 563.62 535.69 564.98
  Q 531.44 567.52 527.69 569.16
  Q 504.79 579.18 485.65 565.17
  C 483.65 563.71 480.76 564.23 479.90 566.82
  Q 478.98 569.58 481.31 571.32
  Q 490.48 578.17 502.28 580.19"
/>
<path stroke="#878e96" vector-effect="non-scaling-stroke" d="
  M 1161.73 842.56
  Q 1159.31 844.78 1156.91 847.17
  C 1155.51 848.55 1154.83 850.21 1153.09 851.28
  Q 1152.64 851.56 1152.34 852.00
  Q 1152.08 852.37 1151.81 852.68
  Q 1143.66 861.81 1135.27 870.81
  Q 1135.13 870.96 1135.27 871.11
  L 1135.27 871.12
  Q 1135.39 871.25 1135.53 871.14
  Q 1147.29 861.78 1157.76 851.20
  C 1158.59 850.37 1158.98 849.41 1159.95 848.75
  Q 1160.99 848.04 1161.87 847.05
  Q 1166.58 841.69 1170.78 835.95
  A 0.34 0.33 -48.0 0 0 1170.76 835.53
  L 1170.60 835.33
  A 0.63 0.63 0.0 0 0 1169.64 835.32
  Q 1167.48 837.75 1164.85 839.48
  Q 1164.47 839.73 1164.27 840.15
  Q 1163.90 840.93 1163.10 841.29
  Q 1162.59 841.51 1162.27 841.95
  Q 1162.02 842.29 1161.73 842.56"
/>
<path stroke="#757e89" vector-effect="non-scaling-stroke" d="
  M 1133.4217 872.7009
  A 1.17 0.20 -41.1 0 0 1132.4085 873.3193
  A 1.17 0.20 -41.1 0 0 1131.6583 874.2391
  A 1.17 0.20 -41.1 0 0 1132.6715 873.6207
  A 1.17 0.20 -41.1 0 0 1133.4217 872.7009"
/>
</g>
<path fill="#f1f8ff" d="
  M 41.38 33.99
  L 41.38 287.05
  A 0.47 0.47 0.0 0 1 40.91 287.52
  L 23.97 287.46
  A 0.47 0.47 0.0 0 1 23.50 286.99
  L 23.50 16.18
  A 0.47 0.47 0.0 0 1 23.97 15.71
  L 296.80 15.71
  A 0.47 0.47 0.0 0 1 297.27 16.18
  L 297.28 33.05
  A 0.47 0.47 0.0 0 1 296.81 33.52
  L 41.85 33.52
  A 0.47 0.47 0.0 0 0 41.38 33.99
  Z"
/>
<path fill="#f1f8ff" d="
  M 1925.44 33.90
  A 0.39 0.39 0.0 0 0 1925.05 33.52
  L 1670.24 33.51
  Q 1669.72 33.51 1669.72 32.99
  L 1669.70 16.26
  Q 1669.70 15.71 1670.24 15.71
  L 1942.98 15.71
  Q 1943.50 15.71 1943.50 16.23
  L 1943.50 287.01
  A 0.51 0.50 0.0 0 1 1942.99 287.51
  L 1926.01 287.50
  A 0.40 0.40 0.0 0 1 1925.61 287.10
  Q 1925.64 169.59 1925.70 52.00
  Q 1925.71 42.92 1925.44 33.90
  Z"
/>
<path fill="#f1f8ff" d="
  M 1869.13 933.02
  A 48.86 48.86 0.0 0 1 1820.27 981.88
  L 152.59 981.88
  A 48.86 48.86 0.0 0 1 103.73 933.02
  L 103.73 146.68
  A 48.86 48.86 0.0 0 1 152.59 97.82
  L 1820.27 97.82
  A 48.86 48.86 0.0 0 1 1869.13 146.68
  L 1869.13 933.02
  Z
  M 912.04 179.47
  Q 910.39 180.08 909.89 181.56
  Q 909.73 182.03 909.38 182.38
  Q 908.45 183.35 908.73 184.98
  Q 908.62 234.68 908.75 284.43
  Q 908.76 287.91 909.69 289.89
  Q 911.04 292.74 913.91 294.24
  Q 915.94 295.30 921.46 295.30
  Q 1351.63 295.37 1781.79 295.32
  Q 1784.99 295.33 1786.47 293.01
  Q 1789.96 289.92 1789.96 285.75
  Q 1789.96 237.48 1789.97 189.21
  C 1789.97 184.03 1789.09 180.35 1784.41 178.01
  Q 1782.38 177.00 1775.83 177.00
  Q 1346.66 177.00 917.50 177.00
  Q 914.95 177.00 912.04 179.47
  Z
  M 226.46 896.78
  L 796.76 896.78
  Q 804.98 897.18 810.51 896.62
  C 821.73 895.48 831.69 887.01 834.95 876.12
  Q 836.30 871.65 836.30 863.63
  Q 836.20 526.58 836.25 209.80
  Q 836.26 204.44 835.37 200.38
  C 832.54 187.45 820.33 178.01 807.06 178.01
  Q 510.10 177.97 216.58 178.03
  C 200.14 178.04 187.76 192.04 187.76 207.70
  Q 187.75 546.51 187.77 867.01
  C 187.77 882.81 200.18 896.79 216.49 896.75
  Q 221.50 896.74 226.46 896.78
  Z
  M 1331.50 411.29
  Q 1332.93 411.04 1333.99 410.04
  Q 1335.48 409.32 1336.22 407.56
  Q 1338.02 404.90 1338.02 403.00
  Q 1338.04 373.12 1338.02 341.71
  Q 1338.02 336.90 1336.67 334.55
  Q 1333.80 329.57 1327.93 329.57
  Q 1124.57 329.56 920.07 329.55
  C 913.54 329.55 908.66 332.93 908.67 339.92
  Q 908.73 371.01 908.67 401.54
  C 908.66 405.28 910.56 408.74 913.72 410.60
  Q 915.72 411.77 920.06 411.77
  Q 1125.42 411.65 1329.37 411.78
  Q 1329.88 411.78 1330.51 411.59
  Q 1331.05 411.42 1331.50 411.29
  Z
  M 1384.50 332.95
  Q 1381.08 335.94 1381.08 341.00
  Q 1381.06 374.29 1381.01 402.25
  C 1381.00 407.20 1384.49 412.69 1390.00 412.70
  Q 1584.92 412.77 1780.74 412.71
  C 1784.33 412.71 1787.24 410.49 1788.88 407.40
  Q 1789.96 405.36 1789.96 399.68
  Q 1789.97 370.75 1789.96 339.75
  Q 1789.96 336.65 1787.27 333.54
  Q 1785.42 330.46 1781.29 330.53
  L 1389.71 330.53
  Q 1386.25 330.32 1384.50 332.95
  Z
  M 908.70 519.97
  Q 909.37 525.79 913.94 527.05
  Q 916.92 528.10 917.75 528.10
  Q 1192.00 528.10 1466.26 528.10
  C 1472.06 528.10 1476.58 528.73 1480.40 523.46
  Q 1481.83 521.48 1481.82 518.98
  Q 1481.80 491.82 1481.84 459.14
  C 1481.85 452.93 1477.21 448.79 1471.25 448.80
  Q 1193.47 449.08 919.08 448.82
  C 914.45 448.81 908.73 452.73 908.71 458.00
  Q 908.66 470.46 908.70 519.97
  Z
  M 1427.03 580.00
  A 9.81 9.81 0.0 0 0 1417.22 570.19
  L 918.50 570.19
  A 9.81 9.81 0.0 0 0 908.69 580.00
  L 908.69 634.68
  A 9.81 9.81 0.0 0 0 918.50 644.49
  L 1417.22 644.49
  A 9.81 9.81 0.0 0 0 1427.03 634.68
  L 1427.03 580.00
  Z
  M 1531.75 887.54
  Q 1531.15 891.19 1533.11 892.12
  Q 1534.52 894.69 1537.36 895.95
  Q 1539.24 896.79 1541.24 896.79
  Q 1660.19 896.75 1779.66 896.82
  C 1785.80 896.82 1790.00 892.58 1789.99 886.45
  Q 1789.89 763.39 1789.95 618.14
  C 1789.95 612.67 1785.64 608.28 1780.11 608.28
  Q 1661.74 608.28 1541.67 608.28
  Q 1536.00 608.28 1533.10 613.21
  Q 1531.76 615.49 1531.76 620.08
  Q 1531.72 753.81 1531.75 887.54
  Z
  M 908.76 756.35
  Q 909.86 760.69 913.00 762.15
  Q 915.00 763.78 916.75 763.78
  Q 1035.86 763.77 1154.98 763.79
  Q 1159.24 763.79 1161.19 763.29
  Q 1164.90 762.33 1166.92 758.23
  Q 1168.00 756.07 1167.96 750.72
  Q 1167.77 723.80 1167.87 696.74
  C 1167.89 690.79 1163.48 686.52 1157.70 686.52
  Q 1038.36 686.52 919.05 686.52
  C 915.33 686.52 911.84 688.19 909.96 691.46
  Q 908.72 693.59 908.71 698.51
  Q 908.64 727.65 908.76 756.35
  Z
  M 1427.03 696.35
  A 9.83 9.83 0.0 0 0 1417.20 686.52
  L 1229.56 686.52
  A 9.83 9.83 0.0 0 0 1219.73 696.35
  L 1219.73 753.95
  A 9.83 9.83 0.0 0 0 1229.56 763.78
  L 1417.20 763.78
  A 9.83 9.83 0.0 0 0 1427.03 753.95
  L 1427.03 696.35
  Z
  M 1084.39 893.45
  Q 1086.36 894.62 1088.93 899.30
  Q 1088.69 898.17 1089.71 899.34
  Q 1090.14 899.39 1090.82 899.39
  Q 1091.37 899.38 1091.87 899.14
  Q 1095.73 897.26 1099.44 894.91
  L 1112.18 890.25
  Q 1112.79 890.03 1112.52 890.62
  Q 1111.21 893.62 1112.06 897.00
  C 1112.61 899.19 1114.76 899.98 1116.79 899.24
  Q 1120.08 898.04 1122.61 896.29
  Q 1126.37 893.69 1130.92 892.29
  C 1135.84 890.78 1137.01 895.99 1139.75 898.30
  Q 1144.13 901.97 1149.40 901.64
  C 1157.79 901.12 1166.39 901.26 1174.74 900.37
  Q 1211.07 896.48 1247.89 890.16
  C 1248.73 890.02 1249.62 890.15 1250.37 889.91
  Q 1251.11 889.68 1251.88 889.55
  Q 1272.80 886.13 1292.85 884.69
  Q 1299.24 884.23 1305.61 883.45
  Q 1312.03 882.66 1318.29 881.85
  Q 1320.85 881.52 1322.85 880.34
  Q 1324.67 879.27 1324.21 877.21
  Q 1324.08 876.64 1323.74 876.20
  Q 1322.29 874.32 1320.41 875.77
  Q 1317.57 877.94 1313.25 878.45
  Q 1296.18 880.47 1284.04 881.17
  Q 1270.87 881.92 1248.04 886.22
  Q 1216.22 892.20 1183.37 895.52
  Q 1175.05 896.36 1165.68 896.65
  Q 1156.58 896.93 1147.51 896.73
  C 1145.73 896.69 1143.98 896.28 1142.89 894.74
  C 1139.94 890.57 1136.03 886.96 1130.53 887.91
  C 1125.43 888.78 1121.31 891.84 1117.03 894.78
  Q 1116.26 895.30 1116.52 894.41
  C 1117.71 890.21 1121.05 886.01 1124.83 883.79
  Q 1131.40 879.92 1138.42 874.14
  Q 1150.54 864.16 1160.28 854.79
  C 1162.68 852.49 1164.75 849.93 1167.16 847.64
  C 1168.54 846.33 1169.20 844.67 1170.55 843.34
  Q 1171.88 842.02 1172.91 840.17
  Q 1175.39 835.75 1175.78 834.30
  Q 1176.44 831.85 1175.00 829.67
  Q 1172.93 826.82 1169.14 830.18
  Q 1158.25 839.23 1148.30 849.81
  Q 1136.31 862.56 1124.56 875.54
  Q 1122.58 877.72 1121.10 879.56
  Q 1119.41 881.68 1117.91 882.44
  C 1115.09 883.87 1112.38 885.38 1109.43 886.50
  Q 1100.32 889.96 1092.05 893.35
  Q 1091.60 893.54 1091.46 893.07
  Q 1091.37 892.75 1091.52 892.32
  Q 1091.18 890.56 1089.54 889.78
  Q 1087.21 888.06 1084.47 888.45
  Q 1083.74 888.56 1083.48 887.86
  C 1082.10 884.09 1078.91 883.91 1075.74 885.51
  Q 1075.19 885.79 1075.49 885.25
  C 1076.79 882.90 1078.41 878.34 1075.98 876.22
  Q 1074.65 874.70 1071.55 876.01
  Q 1070.54 876.33 1069.94 877.04
  Q 1069.63 877.40 1069.41 876.98
  L 1069.28 876.74
  A 0.82 0.81 -37.4 0 1 1069.41 875.79
  Q 1073.02 871.96 1077.70 868.90
  Q 1086.99 862.84 1095.78 856.83
  Q 1103.85 851.31 1108.79 846.48
  Q 1110.21 845.09 1111.67 843.92
  Q 1112.82 843.00 1113.82 842.04
  Q 1126.14 830.27 1139.91 815.41
  C 1143.68 811.34 1140.25 808.36 1136.14 808.12
  Q 1128.22 807.64 1119.54 808.51
  Q 1101.92 810.27 1085.56 815.33
  Q 1044.61 828.01 1007.40 851.72
  Q 994.00 860.26 983.38 870.38
  Q 975.02 878.34 968.45 889.06
  C 965.41 894.03 962.53 901.31 970.15 904.14
  Q 972.76 905.11 978.50 904.64
  C 979.95 904.52 980.92 903.90 982.33 903.68
  Q 983.18 903.55 982.49 904.06
  Q 974.39 909.98 966.04 916.59
  Q 957.13 923.66 949.90 930.95
  Q 948.58 932.29 947.93 934.16
  Q 947.43 935.61 948.95 935.85
  Q 951.90 936.30 954.11 935.39
  C 957.29 934.09 960.54 932.69 963.55 930.98
  Q 997.50 911.65 1031.27 890.67
  C 1031.89 890.29 1032.59 890.15 1033.25 889.88
  Q 1033.70 889.70 1033.94 889.28
  C 1034.43 888.38 1035.48 888.08 1036.32 887.56
  Q 1041.85 884.10 1047.39 880.65
  Q 1060.32 872.59 1070.93 863.97
  C 1073.58 861.82 1076.62 859.68 1079.59 857.98
  Q 1090.97 851.46 1100.02 845.76
  Q 1102.23 844.36 1104.35 842.38
  A 2.01 2.00 -42.5 0 0 1104.48 839.59
  L 1104.18 839.25
  Q 1102.56 837.43 1100.58 838.85
  C 1094.67 843.10 1088.63 847.53 1082.11 851.18
  Q 1072.50 856.54 1068.32 859.92
  Q 1052.88 872.41 1035.08 882.83
  C 1033.21 883.92 1031.65 885.39 1029.62 886.06
  C 1028.86 886.30 1028.51 887.05 1027.81 887.48
  Q 993.80 908.41 962.91 926.08
  Q 961.78 926.74 960.56 927.32
  Q 958.96 928.09 960.34 926.97
  Q 976.26 914.16 993.82 901.35
  Q 996.42 899.45 999.37 898.45
  C 1006.76 895.96 1014.07 892.99 1019.68 887.83
  C 1021.26 886.38 1023.19 883.76 1022.62 881.47
  Q 1022.20 879.81 1020.52 880.13
  C 1018.80 880.47 1017.30 880.89 1015.76 881.72
  Q 1004.73 887.72 993.82 895.51
  Q 992.64 896.35 991.20 896.83
  Q 984.12 899.17 977.96 900.29
  Q 975.08 900.81 972.11 900.27
  A 2.23 2.23 0.0 0 1 970.27 898.04
  C 970.31 895.97 971.01 893.71 972.04 891.93
  C 982.76 873.26 1001.15 859.87 1019.42 849.36
  C 1042.31 836.18 1066.85 825.13 1092.26 817.99
  Q 1114.05 811.87 1135.86 812.00
  Q 1136.52 812.00 1136.02 812.43
  Q 1134.80 813.50 1133.70 814.69
  Q 1122.60 826.77 1112.48 836.68
  C 1110.85 838.27 1109.02 839.53 1107.56 841.29
  C 1106.74 842.27 1105.68 842.72 1104.79 843.58
  Q 1100.14 848.12 1094.57 851.92
  C 1086.17 857.64 1077.01 863.19 1068.90 869.73
  Q 1065.12 872.79 1063.86 876.93
  A 3.13 3.13 0.0 0 0 1065.55 880.68
  Q 1068.51 882.05 1072.40 880.76
  Q 1072.55 880.71 1072.44 880.81
  Q 1071.57 881.63 1071.10 882.62
  Q 1069.58 885.85 1067.64 889.59
  Q 1066.38 892.02 1066.71 893.63
  C 1067.22 896.18 1069.18 896.31 1071.16 895.07
  Q 1074.51 892.98 1077.53 890.41
  Q 1078.83 889.30 1078.83 891.01
  Q 1078.84 893.32 1080.78 894.35
  Q 1081.24 894.59 1081.72 894.42
  L 1084.39 893.45
  Z"
/>
<path fill="#1c242d" d="
  M 1786.47 293.01
  L 1781.79 295.32
  Q 1351.63 295.37 921.46 295.30
  Q 915.94 295.30 913.91 294.24
  Q 911.04 292.74 909.69 289.89
  Q 908.76 287.91 908.75 284.43
  Q 908.62 234.68 908.73 184.98
  L 912.04 179.47
  Q 914.95 177.00 917.50 177.00
  Q 1346.66 177.00 1775.83 177.00
  Q 1782.38 177.00 1784.41 178.01
  C 1789.09 180.35 1789.97 184.03 1789.97 189.21
  Q 1789.96 237.48 1789.96 285.75
  Q 1789.96 289.92 1786.47 293.01
  Z"
/>
<path fill="#cdd8e4" d="
  M 796.76 896.78
  Q 797.12 884.41 795.76 872.51
  C 792.63 844.88 779.03 816.69 757.25 800.12
  Q 754.90 798.33 752.23 796.82
  Q 659.01 744.13 565.74 691.40
  Q 561.71 684.06 559.62 675.23
  Q 557.40 665.85 556.76 657.25
  Q 556.40 652.45 556.40 643.11
  L 557.28 627.68
  Q 558.60 626.33 559.73 625.76
  Q 569.63 620.77 578.15 613.66
  Q 580.92 611.35 588.58 603.32
  Q 606.52 590.43 619.76 573.02
  Q 631.11 558.10 639.11 541.13
  Q 640.83 537.50 646.01 525.49
  Q 655.43 522.01 660.63 512.89
  Q 670.04 496.39 669.16 477.23
  Q 668.56 464.08 662.39 453.71
  C 662.61 447.22 663.22 440.77 663.42 434.46
  Q 664.46 402.45 659.97 371.66
  Q 654.77 335.94 629.94 308.91
  Q 618.64 296.61 603.67 287.29
  Q 602.64 286.65 602.32 285.46
  C 595.40 259.59 576.62 246.43 551.43 241.37
  C 541.76 239.43 533.33 241.16 523.67 244.12
  C 507.14 249.19 495.48 259.18 486.63 273.66
  A 0.71 0.71 0.0 0 1 485.74 273.94
  C 472.84 268.17 459.49 264.39 445.45 264.92
  C 411.98 266.18 390.73 293.80 379.94 322.99
  Q 378.50 326.88 377.32 331.24
  C 376.50 334.27 371.89 337.43 369.91 339.96
  Q 362.65 349.20 359.41 361.56
  C 354.60 379.87 354.91 400.69 359.62 418.98
  Q 360.51 422.44 360.54 426.49
  Q 360.61 439.50 361.96 452.49
  Q 355.48 461.93 354.37 473.33
  Q 353.76 479.54 354.53 487.63
  C 355.54 498.29 359.14 508.96 365.88 517.38
  Q 370.69 523.39 378.30 525.67
  Q 385.93 544.93 397.08 562.43
  Q 409.50 581.93 427.26 596.64
  Q 442.14 616.90 464.51 627.27
  Q 465.11 627.55 465.99 628.72
  Q 466.68 631.77 466.87 634.90
  Q 468.03 653.74 464.28 673.50
  Q 462.33 682.63 457.80 691.28
  Q 367.82 742.28 277.56 793.21
  Q 267.20 799.05 262.64 802.90
  Q 255.83 808.64 250.28 815.89
  C 232.34 839.34 225.50 867.47 226.46 896.78
  Q 221.50 896.74 216.49 896.75
  C 200.18 896.79 187.77 882.81 187.77 867.01
  Q 187.75 546.51 187.76 207.70
  C 187.76 192.04 200.14 178.04 216.58 178.03
  Q 510.10 177.97 807.06 178.01
  C 820.33 178.01 832.54 187.45 835.37 200.38
  Q 836.26 204.44 836.25 209.80
  Q 836.20 526.58 836.30 863.63
  Q 836.30 871.65 834.95 876.12
  C 831.69 887.01 821.73 895.48 810.51 896.62
  Q 804.98 897.18 796.76 896.78
  Z"
/>
<path fill="#cdd8e4" d="
  M 912.04 179.47
  L 908.73 184.98
  Q 908.45 183.35 909.38 182.38
  Q 909.73 182.03 909.89 181.56
  Q 910.39 180.08 912.04 179.47
  Z"
/>
<path fill="#542d6d" d="
  M 662.39 453.71
  Q 658.93 448.96 654.20 447.01
  Q 653.53 446.74 653.36 447.44
  Q 652.88 449.51 650.96 449.98
  C 644.81 451.49 642.35 459.08 641.58 464.68
  Q 640.28 474.21 639.33 483.70
  Q 638.70 489.96 636.98 496.01
  Q 635.65 500.67 632.13 503.66
  Q 631.56 483.50 630.79 464.26
  Q 630.36 453.56 628.17 444.97
  C 624.83 431.87 617.89 420.84 607.57 412.45
  C 594.76 402.05 583.44 390.22 576.58 374.99
  Q 569.03 358.24 569.25 338.77
  A 0.41 0.40 -20.8 0 0 568.57 338.47
  C 562.30 344.32 553.24 346.84 544.66 347.76
  Q 535.92 348.71 527.62 349.57
  C 518.68 350.49 508.93 353.03 502.57 359.18
  Q 498.46 363.15 493.89 371.76
  C 485.73 387.15 474.87 404.97 457.00 409.98
  C 446.67 412.88 436.00 412.54 425.17 412.65
  C 411.02 412.79 399.74 415.49 393.23 429.88
  Q 392.09 432.39 392.11 435.54
  C 392.18 455.40 391.70 475.32 389.73 494.75
  Q 389.48 497.27 388.22 502.76
  Q 386.96 503.36 386.61 501.76
  Q 383.67 488.43 380.87 466.57
  Q 379.40 455.10 372.21 446.68
  A 1.23 1.22 60.4 0 0 370.89 446.31
  Q 365.60 448.05 361.96 452.49
  Q 360.61 439.50 360.54 426.49
  Q 360.51 422.44 359.62 418.98
  C 354.91 400.69 354.60 379.87 359.41 361.56
  Q 362.65 349.20 369.91 339.96
  C 371.89 337.43 376.50 334.27 377.32 331.24
  Q 378.50 326.88 379.94 322.99
  C 390.73 293.80 411.98 266.18 445.45 264.92
  C 459.49 264.39 472.84 268.17 485.74 273.94
  A 0.71 0.71 0.0 0 0 486.63 273.66
  C 495.48 259.18 507.14 249.19 523.67 244.12
  C 533.33 241.16 541.76 239.43 551.43 241.37
  C 576.62 246.43 595.40 259.59 602.32 285.46
  Q 602.64 286.65 603.67 287.29
  Q 618.64 296.61 629.94 308.91
  Q 654.77 335.94 659.97 371.66
  Q 664.46 402.45 663.42 434.46
  C 663.22 440.77 662.61 447.22 662.39 453.71
  Z"
/>
<path fill="#cdd8e4" d="
  M 1786.47 293.01
  Q 1784.99 295.33 1781.79 295.32
  L 1786.47 293.01
  Z"
/>
<path fill="#1c242d" d="
  M 1336.22 407.56
  Q 1334.65 408.59 1333.69 409.92
  Q 1331.52 409.86 1331.50 411.29
  Q 1331.05 411.42 1330.51 411.59
  Q 1329.88 411.78 1329.37 411.78
  Q 1125.42 411.65 920.06 411.77
  Q 915.72 411.77 913.72 410.60
  C 910.56 408.74 908.66 405.28 908.67 401.54
  Q 908.73 371.01 908.67 339.92
  C 908.66 332.93 913.54 329.55 920.07 329.55
  Q 1124.57 329.56 1327.93 329.57
  Q 1333.80 329.57 1336.67 334.55
  Q 1338.02 336.90 1338.02 341.71
  Q 1338.04 373.12 1338.02 403.00
  Q 1338.02 404.90 1336.22 407.56
  Z"
/>
<path fill="#cdd8e4" d="
  M 1389.71 330.53
  L 1384.50 332.95
  Q 1386.25 330.32 1389.71 330.53
  Z"
/>
<path fill="#1c242d" d="
  M 1389.71 330.53
  L 1781.29 330.53
  L 1787.27 333.54
  Q 1789.96 336.65 1789.96 339.75
  Q 1789.97 370.75 1789.96 399.68
  Q 1789.96 405.36 1788.88 407.40
  C 1787.24 410.49 1784.33 412.71 1780.74 412.71
  Q 1584.92 412.77 1390.00 412.70
  C 1384.49 412.69 1381.00 407.20 1381.01 402.25
  Q 1381.06 374.29 1381.08 341.00
  Q 1381.08 335.94 1384.50 332.95
  L 1389.71 330.53
  Z"
/>
<path fill="#cdd8e4" d="
  M 1781.29 330.53
  Q 1785.42 330.46 1787.27 333.54
  L 1781.29 330.53
  Z"
/>
<path fill="#f9c5b8" d="
  M 632.13 503.66
  L 629.61 517.09
  Q 623.20 542.72 612.67 565.20
  Q 603.25 585.31 588.58 603.32
  Q 580.92 611.35 578.15 613.66
  Q 569.63 620.77 559.73 625.76
  Q 558.60 626.33 557.28 627.68
  Q 555.07 628.09 549.68 630.14
  Q 508.95 645.61 468.02 628.76
  Q 467.26 628.45 465.99 628.72
  Q 465.11 627.55 464.51 627.27
  Q 442.14 616.90 427.26 596.64
  Q 427.25 596.63 427.24 596.61
  Q 406.81 568.39 396.62 535.03
  Q 394.23 527.20 392.09 519.27
  L 388.22 502.76
  Q 389.48 497.27 389.73 494.75
  C 391.70 475.32 392.18 455.40 392.11 435.54
  Q 392.09 432.39 393.23 429.88
  C 399.74 415.49 411.02 412.79 425.17 412.65
  C 436.00 412.54 446.67 412.88 457.00 409.98
  C 474.87 404.97 485.73 387.15 493.89 371.76
  Q 498.46 363.15 502.57 359.18
  C 508.93 353.03 518.68 350.49 527.62 349.57
  Q 535.92 348.71 544.66 347.76
  C 553.24 346.84 562.30 344.32 568.57 338.47
  A 0.41 0.40 -20.8 0 1 569.25 338.77
  Q 569.03 358.24 576.58 374.99
  C 583.44 390.22 594.76 402.05 607.57 412.45
  C 617.89 420.84 624.83 431.87 628.17 444.97
  Q 630.36 453.56 630.79 464.26
  Q 631.56 483.50 632.13 503.66
  Z
  M 434.19 435.82
  C 425.29 439.64 429.87 452.08 439.42 447.90
  C 448.83 443.77 459.44 441.90 470.20 442.84
  C 479.64 443.66 479.65 430.59 470.94 429.84
  Q 451.88 428.21 434.19 435.82
  Z
  M 582.38 448.12
  C 591.09 451.90 595.22 439.52 587.75 436.16
  Q 570.17 428.25 550.12 429.84
  C 546.02 430.17 543.11 433.71 543.81 437.76
  C 544.61 442.38 547.89 443.12 552.08 442.82
  C 562.58 442.07 572.71 443.92 582.38 448.12
  Z
  M 460.5100 494.1800
  A 18.84 10.03 90.0 0 0 470.5400 475.3400
  A 18.84 10.03 90.0 0 0 460.5100 456.5000
  A 18.84 10.03 90.0 0 0 450.4800 475.3400
  A 18.84 10.03 90.0 0 0 460.5100 494.1800
  Z
  M 560.6100 494.1600
  A 18.82 10.01 90.0 0 0 570.6200 475.3400
  A 18.82 10.01 90.0 0 0 560.6100 456.5200
  A 18.82 10.01 90.0 0 0 550.6000 475.3400
  A 18.82 10.01 90.0 0 0 560.6100 494.1600
  Z
  M 460.85 495.78
  C 458.91 495.96 457.00 494.71 455.02 494.62
  Q 441.93 494.03 431.16 499.32
  Q 427.63 501.04 425.56 503.77
  Q 422.78 507.41 424.94 511.39
  C 428.27 517.54 439.54 520.57 445.94 521.23
  C 456.10 522.27 466.23 521.78 475.73 517.75
  C 480.05 515.92 485.78 512.00 484.52 506.60
  C 483.80 503.53 480.11 500.60 477.38 499.16
  Q 469.42 494.97 460.85 495.78
  Z
  M 562.58 495.46
  C 560.18 496.02 557.73 495.26 555.37 495.54
  C 549.79 496.21 539.71 499.53 537.06 505.17
  C 533.88 511.95 542.27 516.79 547.73 518.75
  Q 552.82 520.58 557.40 521.12
  C 569.10 522.48 583.41 521.97 593.15 514.77
  C 599.23 510.27 597.72 504.30 592.05 500.56
  C 584.66 495.66 574.42 494.18 565.63 494.58
  C 564.50 494.63 563.70 495.21 562.58 495.46
  Z
  M 501.70 538.71
  C 500.49 536.89 501.70 534.16 502.71 532.51
  C 506.66 526.05 511.45 520.54 514.16 513.23
  A 3.10 3.08 42.6 0 0 514.05 510.79
  Q 512.88 508.32 511.17 508.24
  Q 508.01 508.10 506.87 511.06
  C 504.25 517.86 498.68 524.05 495.68 529.65
  C 489.45 541.27 498.39 548.13 508.04 551.81
  C 512.08 553.35 515.20 547.72 511.64 545.42
  C 508.15 543.16 504.11 542.34 501.70 538.71
  Z
  M 502.28 580.19
  C 515.13 582.40 528.77 578.38 539.65 571.35
  Q 542.00 569.83 541.33 567.12
  C 540.65 564.37 537.96 563.62 535.69 564.98
  Q 531.44 567.52 527.69 569.16
  Q 504.79 579.18 485.65 565.17
  C 483.65 563.71 480.76 564.23 479.90 566.82
  Q 478.98 569.58 481.31 571.32
  Q 490.48 578.17 502.28 580.19
  Z"
/>
<path fill="#4e5da7" d="
  M 1336.22 407.56
  Q 1335.48 409.32 1333.99 410.04
  Q 1333.84 409.98 1333.69 409.92
  Q 1334.65 408.59 1336.22 407.56
  Z"
/>
<path fill="#542d6d" d="
  M 1333.69 409.92
  Q 1333.84 409.98 1333.99 410.04
  Q 1332.93 411.04 1331.50 411.29
  Q 1331.52 409.86 1333.69 409.92
  Z"
/>
<path fill="#542d6d" d="
  M 434.19 435.82
  Q 451.88 428.21 470.94 429.84
  C 479.65 430.59 479.64 443.66 470.20 442.84
  C 459.44 441.90 448.83 443.77 439.42 447.90
  C 429.87 452.08 425.29 439.64 434.19 435.82
  Z"
/>
<path fill="#542d6d" d="
  M 582.38 448.12
  C 572.71 443.92 562.58 442.07 552.08 442.82
  C 547.89 443.12 544.61 442.38 543.81 437.76
  C 543.11 433.71 546.02 430.17 550.12 429.84
  Q 570.17 428.25 587.75 436.16
  C 595.22 439.52 591.09 451.90 582.38 448.12
  Z"
/>
<path fill="#f5a997" d="
  M 388.22 502.76
  L 392.09 519.27
  Q 386.75 526.20 378.30 525.67
  Q 370.69 523.39 365.88 517.38
  C 359.14 508.96 355.54 498.29 354.53 487.63
  Q 353.76 479.54 354.37 473.33
  Q 355.48 461.93 361.96 452.49
  Q 365.60 448.05 370.89 446.31
  A 1.23 1.22 60.4 0 1 372.21 446.68
  Q 379.40 455.10 380.87 466.57
  Q 383.67 488.43 386.61 501.76
  Q 386.96 503.36 388.22 502.76
  Z"
/>
<path fill="#f5a997" d="
  M 662.39 453.71
  Q 668.56 464.08 669.16 477.23
  Q 670.04 496.39 660.63 512.89
  Q 655.43 522.01 646.01 525.49
  Q 635.67 526.75 629.61 517.09
  L 632.13 503.66
  Q 635.65 500.67 636.98 496.01
  Q 638.70 489.96 639.33 483.70
  Q 640.28 474.21 641.58 464.68
  C 642.35 459.08 644.81 451.49 650.96 449.98
  Q 652.88 449.51 653.36 447.44
  Q 653.53 446.74 654.20 447.01
  Q 658.93 448.96 662.39 453.71
  Z"
/>
<path fill="#1c242d" d="
  M 913.94 527.05
  Q 910.21 524.39 908.70 519.97
  Q 908.66 470.46 908.71 458.00
  C 908.73 452.73 914.45 448.81 919.08 448.82
  Q 1193.47 449.08 1471.25 448.80
  C 1477.21 448.79 1481.85 452.93 1481.84 459.14
  Q 1481.80 491.82 1481.82 518.98
  Q 1481.83 521.48 1480.40 523.46
  C 1476.58 528.73 1472.06 528.10 1466.26 528.10
  Q 1192.00 528.10 917.75 528.10
  Q 916.92 528.10 913.94 527.05
  Z"
/>
<ellipse fill="#542d6d" cx="0.00" cy="0.00" transform="translate(460.51,475.34) rotate(90.0)" rx="18.84" ry="10.03"/>
<ellipse fill="#542d6d" cx="0.00" cy="0.00" transform="translate(560.61,475.34) rotate(90.0)" rx="18.82" ry="10.01"/>
<path fill="#f5a997" d="
  M 460.85 495.78
  Q 469.42 494.97 477.38 499.16
  C 480.11 500.60 483.80 503.53 484.52 506.60
  C 485.78 512.00 480.05 515.92 475.73 517.75
  C 466.23 521.78 456.10 522.27 445.94 521.23
  C 439.54 520.57 428.27 517.54 424.94 511.39
  Q 422.78 507.41 425.56 503.77
  Q 427.63 501.04 431.16 499.32
  Q 441.93 494.03 455.02 494.62
  C 457.00 494.71 458.91 495.96 460.85 495.78
  Z"
/>
<path fill="#f5a997" d="
  M 562.58 495.46
  C 563.70 495.21 564.50 494.63 565.63 494.58
  C 574.42 494.18 584.66 495.66 592.05 500.56
  C 597.72 504.30 599.23 510.27 593.15 514.77
  C 583.41 521.97 569.10 522.48 557.40 521.12
  Q 552.82 520.58 547.73 518.75
  C 542.27 516.79 533.88 511.95 537.06 505.17
  C 539.71 499.53 549.79 496.21 555.37 495.54
  C 557.73 495.26 560.18 496.02 562.58 495.46
  Z"
/>
<path fill="#f5a997" d="
  M 501.70 538.71
  C 504.11 542.34 508.15 543.16 511.64 545.42
  C 515.20 547.72 512.08 553.35 508.04 551.81
  C 498.39 548.13 489.45 541.27 495.68 529.65
  C 498.68 524.05 504.25 517.86 506.87 511.06
  Q 508.01 508.10 511.17 508.24
  Q 512.88 508.32 514.05 510.79
  A 3.10 3.08 42.6 0 1 514.16 513.23
  C 511.45 520.54 506.66 526.05 502.71 532.51
  C 501.70 534.16 500.49 536.89 501.70 538.71
  Z"
/>
<path fill="#542d6d" d="
  M 629.61 517.09
  Q 635.67 526.75 646.01 525.49
  Q 640.83 537.50 639.11 541.13
  Q 631.11 558.10 619.76 573.02
  Q 606.52 590.43 588.58 603.32
  Q 603.25 585.31 612.67 565.20
  Q 623.20 542.72 629.61 517.09
  Z"
/>
<path fill="#542d6d" d="
  M 392.09 519.27
  Q 394.23 527.20 396.62 535.03
  Q 406.81 568.39 427.24 596.61
  Q 427.25 596.63 427.26 596.64
  Q 409.50 581.93 397.08 562.43
  Q 385.93 544.93 378.30 525.67
  Q 386.75 526.20 392.09 519.27
  Z"
/>
<path fill="#cdd8e4" d="
  M 908.70 519.97
  Q 910.21 524.39 913.94 527.05
  Q 909.37 525.79 908.70 519.97
  Z"
/>
<path fill="#f5a997" d="
  M 502.28 580.19
  Q 490.48 578.17 481.31 571.32
  Q 478.98 569.58 479.90 566.82
  C 480.76 564.23 483.65 563.71 485.65 565.17
  Q 504.79 579.18 527.69 569.16
  Q 531.44 567.52 535.69 564.98
  C 537.96 563.62 540.65 564.37 541.33 567.12
  Q 542.00 569.83 539.65 571.35
  C 528.77 578.38 515.13 582.40 502.28 580.19
  Z"
/>
<rect fill="#1c242d" x="908.69" y="570.19" width="518.34" height="74.30" rx="9.81"/>
<path fill="#1c242d" d="
  M 1533.11 892.12
  L 1531.75 887.54
  Q 1531.72 753.81 1531.76 620.08
  Q 1531.76 615.49 1533.10 613.21
  Q 1536.00 608.28 1541.67 608.28
  Q 1661.74 608.28 1780.11 608.28
  C 1785.64 608.28 1789.95 612.67 1789.95 618.14
  Q 1789.89 763.39 1789.99 886.45
  C 1790.00 892.58 1785.80 896.82 1779.66 896.82
  Q 1660.19 896.75 1541.24 896.79
  Q 1539.24 896.79 1537.36 895.95
  Q 1534.52 894.69 1533.11 892.12
  Z"
/>
<path fill="#f5a997" d="
  M 557.28 627.68
  L 556.40 643.11
  Q 532.91 656.19 507.23 664.41
  Q 486.42 671.06 464.28 673.50
  Q 468.03 653.74 466.87 634.90
  Q 466.68 631.77 465.99 628.72
  Q 467.26 628.45 468.02 628.76
  Q 508.95 645.61 549.68 630.14
  Q 555.07 628.09 557.28 627.68
  Z"
/>
<path fill="#f9c5b8" d="
  M 556.40 643.11
  Q 556.40 652.45 556.76 657.25
  Q 557.40 665.85 559.62 675.23
  Q 561.71 684.06 565.74 691.40
  Q 562.87 693.01 560.02 694.72
  C 528.25 713.69 489.03 708.45 457.80 691.28
  Q 462.33 682.63 464.28 673.50
  Q 486.42 671.06 507.23 664.41
  Q 532.91 656.19 556.40 643.11
  Z"
/>
<path fill="#1c242d" d="
  M 913.00 762.15
  L 908.76 756.35
  Q 908.64 727.65 908.71 698.51
  Q 908.72 693.59 909.96 691.46
  C 911.84 688.19 915.33 686.52 919.05 686.52
  Q 1038.36 686.52 1157.70 686.52
  C 1163.48 686.52 1167.89 690.79 1167.87 696.74
  Q 1167.77 723.80 1167.96 750.72
  Q 1168.00 756.07 1166.92 758.23
  Q 1164.90 762.33 1161.19 763.29
  Q 1159.24 763.79 1154.98 763.79
  Q 1035.86 763.77 916.75 763.78
  Q 915.00 763.78 913.00 762.15
  Z"
/>
<rect fill="#1c242d" x="1219.73" y="686.52" width="207.30" height="77.26" rx="9.83"/>
<path fill="#4e5da7" d="
  M 457.80 691.28
  C 489.03 708.45 528.25 713.69 560.02 694.72
  Q 562.87 693.01 565.74 691.40
  Q 659.01 744.13 752.23 796.82
  Q 754.90 798.33 757.25 800.12
  C 779.03 816.69 792.63 844.88 795.76 872.51
  Q 797.12 884.41 796.76 896.78
  L 226.46 896.78
  C 225.50 867.47 232.34 839.34 250.28 815.89
  Q 255.83 808.64 262.64 802.90
  Q 267.20 799.05 277.56 793.21
  Q 367.82 742.28 457.80 691.28
  Z"
/>
<path fill="#4e5da7" d="
  M 908.76 756.35
  L 913.00 762.15
  Q 909.86 760.69 908.76 756.35
  Z"
/>
<path fill="#f1f8ff" d="
  M 41.44 1031.92
  Q 41.65 1032.47 42.08 1032.47
  Q 169.57 1032.48 296.70 1032.48
  Q 297.27 1032.48 297.27 1033.05
  L 297.28 1049.75
  A 0.53 0.53 0.0 0 1 296.75 1050.28
  L 24.01 1050.28
  Q 23.50 1050.28 23.50 1049.77
  L 23.50 777.99
  A 0.51 0.50 0.0 0 1 24.01 777.49
  L 40.90 777.54
  A 0.48 0.48 0.0 0 1 41.38 778.02
  L 41.38 1031.75
  A 0.20 0.01 67.9 0 0 41.44 1031.92
  Z"
/>
<path fill="#f1f8ff" d="
  M 1925.61 1032.00
  L 1925.63 777.97
  A 0.47 0.47 0.0 0 1 1926.10 777.50
  L 1943.03 777.51
  A 0.47 0.47 0.0 0 1 1943.50 777.98
  L 1943.50 1049.81
  A 0.47 0.47 0.0 0 1 1943.03 1050.28
  L 1670.17 1050.28
  A 0.47 0.47 0.0 0 1 1669.70 1049.81
  L 1669.70 1032.94
  A 0.47 0.47 0.0 0 1 1670.17 1032.47
  L 1925.14 1032.47
  A 0.47 0.47 0.0 0 0 1925.61 1032.00
  Z"
/>
<path fill="#1c242d" d="
  M 1071.55 876.01
  Q 1073.92 876.51 1075.98 876.22
  C 1078.41 878.34 1076.79 882.90 1075.49 885.25
  Q 1075.19 885.79 1075.74 885.51
  C 1078.91 883.91 1082.10 884.09 1083.48 887.86
  Q 1083.74 888.56 1084.47 888.45
  Q 1087.21 888.06 1089.54 889.78
  Q 1090.18 891.78 1091.52 892.32
  Q 1091.37 892.75 1091.46 893.07
  Q 1091.60 893.54 1092.05 893.35
  Q 1100.32 889.96 1109.43 886.50
  C 1112.38 885.38 1115.09 883.87 1117.91 882.44
  Q 1119.41 881.68 1121.10 879.56
  Q 1122.58 877.72 1124.56 875.54
  Q 1136.31 862.56 1148.30 849.81
  Q 1158.25 839.23 1169.14 830.18
  Q 1172.64 828.55 1175.00 829.67
  Q 1176.44 831.85 1175.78 834.30
  Q 1175.39 835.75 1172.91 840.17
  Q 1171.88 842.02 1170.55 843.34
  C 1169.20 844.67 1168.54 846.33 1167.16 847.64
  C 1164.75 849.93 1162.68 852.49 1160.28 854.79
  Q 1150.54 864.16 1138.42 874.14
  Q 1131.40 879.92 1124.83 883.79
  C 1121.05 886.01 1117.71 890.21 1116.52 894.41
  Q 1116.26 895.30 1117.03 894.78
  C 1121.31 891.84 1125.43 888.78 1130.53 887.91
  C 1136.03 886.96 1139.94 890.57 1142.89 894.74
  C 1143.98 896.28 1145.73 896.69 1147.51 896.73
  Q 1156.58 896.93 1165.68 896.65
  Q 1175.05 896.36 1183.37 895.52
  Q 1216.22 892.20 1248.04 886.22
  Q 1270.87 881.92 1284.04 881.17
  Q 1296.18 880.47 1313.25 878.45
  Q 1317.57 877.94 1320.41 875.77
  Q 1322.29 874.32 1323.74 876.20
  Q 1324.08 876.64 1324.21 877.21
  Q 1324.67 879.27 1322.85 880.34
  Q 1320.85 881.52 1318.29 881.85
  Q 1312.03 882.66 1305.61 883.45
  Q 1299.24 884.23 1292.85 884.69
  Q 1272.80 886.13 1251.88 889.55
  Q 1251.11 889.68 1250.37 889.91
  C 1249.62 890.15 1248.73 890.02 1247.89 890.16
  Q 1211.07 896.48 1174.74 900.37
  C 1166.39 901.26 1157.79 901.12 1149.40 901.64
  Q 1144.13 901.97 1139.75 898.30
  C 1137.01 895.99 1135.84 890.78 1130.92 892.29
  Q 1126.37 893.69 1122.61 896.29
  Q 1120.08 898.04 1116.79 899.24
  C 1114.76 899.98 1112.61 899.19 1112.06 897.00
  Q 1111.21 893.62 1112.52 890.62
  Q 1112.79 890.03 1112.18 890.25
  L 1099.44 894.91
  L 1089.71 899.34
  Q 1088.69 898.17 1088.93 899.30
  Q 1088.06 895.76 1086.51 893.47
  A 0.93 0.91 71.2 0 0 1085.72 893.07
  Q 1084.69 893.11 1084.39 893.45
  L 1081.72 894.42
  Q 1081.24 894.59 1080.78 894.35
  Q 1078.84 893.32 1078.83 891.01
  Q 1078.83 889.30 1077.53 890.41
  Q 1074.51 892.98 1071.16 895.07
  C 1069.18 896.31 1067.22 896.18 1066.71 893.63
  Q 1066.38 892.02 1067.64 889.59
  Q 1069.58 885.85 1071.10 882.62
  Q 1071.57 881.63 1072.44 880.81
  Q 1072.55 880.71 1072.40 880.76
  Q 1068.51 882.05 1065.55 880.68
  A 3.13 3.13 0.0 0 1 1063.86 876.93
  Q 1065.12 872.79 1068.90 869.73
  C 1077.01 863.19 1086.17 857.64 1094.57 851.92
  Q 1100.14 848.12 1104.79 843.58
  C 1105.68 842.72 1106.74 842.27 1107.56 841.29
  C 1109.02 839.53 1110.85 838.27 1112.48 836.68
  Q 1122.60 826.77 1133.70 814.69
  Q 1134.80 813.50 1136.02 812.43
  Q 1136.52 812.00 1135.86 812.00
  Q 1114.05 811.87 1092.26 817.99
  C 1066.85 825.13 1042.31 836.18 1019.42 849.36
  C 1001.15 859.87 982.76 873.26 972.04 891.93
  C 971.01 893.71 970.31 895.97 970.27 898.04
  A 2.23 2.23 0.0 0 0 972.11 900.27
  Q 975.08 900.81 977.96 900.29
  Q 984.12 899.17 991.20 896.83
  Q 992.64 896.35 993.82 895.51
  Q 1004.73 887.72 1015.76 881.72
  C 1017.30 880.89 1018.80 880.47 1020.52 880.13
  Q 1022.20 879.81 1022.62 881.47
  C 1023.19 883.76 1021.26 886.38 1019.68 887.83
  C 1014.07 892.99 1006.76 895.96 999.37 898.45
  Q 996.42 899.45 993.82 901.35
  Q 976.26 914.16 960.34 926.97
  Q 958.96 928.09 960.56 927.32
  Q 961.78 926.74 962.91 926.08
  Q 993.80 908.41 1027.81 887.48
  C 1028.51 887.05 1028.86 886.30 1029.62 886.06
  C 1031.65 885.39 1033.21 883.92 1035.08 882.83
  Q 1052.88 872.41 1068.32 859.92
  Q 1072.50 856.54 1082.11 851.18
  C 1088.63 847.53 1094.67 843.10 1100.58 838.85
  Q 1102.56 837.43 1104.18 839.25
  L 1104.48 839.59
  A 2.01 2.00 -42.5 0 1 1104.35 842.38
  Q 1102.23 844.36 1100.02 845.76
  Q 1090.97 851.46 1079.59 857.98
  C 1076.62 859.68 1073.58 861.82 1070.93 863.97
  Q 1060.32 872.59 1047.39 880.65
  Q 1041.85 884.10 1036.32 887.56
  C 1035.48 888.08 1034.43 888.38 1033.94 889.28
  Q 1033.70 889.70 1033.25 889.88
  C 1032.59 890.15 1031.89 890.29 1031.27 890.67
  Q 997.50 911.65 963.55 930.98
  C 960.54 932.69 957.29 934.09 954.11 935.39
  Q 951.90 936.30 948.95 935.85
  Q 947.43 935.61 947.93 934.16
  Q 948.58 932.29 949.90 930.95
  Q 957.13 923.66 966.04 916.59
  Q 974.39 909.98 982.49 904.06
  Q 983.18 903.55 982.33 903.68
  C 980.92 903.90 979.95 904.52 978.50 904.64
  Q 972.76 905.11 970.15 904.14
  C 962.53 901.31 965.41 894.03 968.45 889.06
  Q 975.02 878.34 983.38 870.38
  Q 994.00 860.26 1007.40 851.72
  Q 1044.61 828.01 1085.56 815.33
  Q 1101.92 810.27 1119.54 808.51
  Q 1128.22 807.64 1136.14 808.12
  C 1140.25 808.36 1143.68 811.34 1139.91 815.41
  Q 1126.14 830.27 1113.82 842.04
  Q 1112.82 843.00 1111.67 843.92
  Q 1110.21 845.09 1108.79 846.48
  Q 1103.85 851.31 1095.78 856.83
  Q 1086.99 862.84 1077.70 868.90
  Q 1073.02 871.96 1069.41 875.79
  A 0.82 0.81 -37.4 0 0 1069.28 876.74
  L 1069.41 876.98
  Q 1069.63 877.40 1069.94 877.04
  Q 1070.54 876.33 1071.55 876.01
  Z
  M 1161.73 842.56
  Q 1159.31 844.78 1156.91 847.17
  C 1155.51 848.55 1154.83 850.21 1153.09 851.28
  Q 1152.64 851.56 1152.34 852.00
  Q 1152.08 852.37 1151.81 852.68
  Q 1143.66 861.81 1135.27 870.81
  Q 1135.13 870.96 1135.27 871.11
  L 1135.27 871.12
  Q 1135.39 871.25 1135.53 871.14
  Q 1147.29 861.78 1157.76 851.20
  C 1158.59 850.37 1158.98 849.41 1159.95 848.75
  Q 1160.99 848.04 1161.87 847.05
  Q 1166.58 841.69 1170.78 835.95
  A 0.34 0.33 -48.0 0 0 1170.76 835.53
  L 1170.60 835.33
  A 0.63 0.63 0.0 0 0 1169.64 835.32
  Q 1167.48 837.75 1164.85 839.48
  Q 1164.47 839.73 1164.27 840.15
  Q 1163.90 840.93 1163.10 841.29
  Q 1162.59 841.51 1162.27 841.95
  Q 1162.02 842.29 1161.73 842.56
  Z
  M 1133.4217 872.7009
  A 1.17 0.20 -41.1 0 0 1132.4085 873.3193
  A 1.17 0.20 -41.1 0 0 1131.6583 874.2391
  A 1.17 0.20 -41.1 0 0 1132.6715 873.6207
  A 1.17 0.20 -41.1 0 0 1133.4217 872.7009
  Z"
/>
<path fill="#cdd8e4" d="
  M 1175.00 829.67
  Q 1172.64 828.55 1169.14 830.18
  Q 1172.93 826.82 1175.00 829.67
  Z"
/>
<path fill="#f1f8ff" d="
  M 1161.73 842.56
  Q 1162.02 842.29 1162.27 841.95
  Q 1162.59 841.51 1163.10 841.29
  Q 1163.90 840.93 1164.27 840.15
  Q 1164.47 839.73 1164.85 839.48
  Q 1167.48 837.75 1169.64 835.32
  A 0.63 0.63 0.0 0 1 1170.60 835.33
  L 1170.76 835.53
  A 0.34 0.33 -48.0 0 1 1170.78 835.95
  Q 1166.58 841.69 1161.87 847.05
  Q 1160.99 848.04 1159.95 848.75
  C 1158.98 849.41 1158.59 850.37 1157.76 851.20
  Q 1147.29 861.78 1135.53 871.14
  Q 1135.39 871.25 1135.27 871.12
  L 1135.27 871.11
  Q 1135.13 870.96 1135.27 870.81
  Q 1143.66 861.81 1151.81 852.68
  Q 1152.08 852.37 1152.34 852.00
  Q 1152.64 851.56 1153.09 851.28
  C 1154.83 850.21 1155.51 848.55 1156.91 847.17
  Q 1159.31 844.78 1161.73 842.56
  Z"
/>
<ellipse fill="#cdd8e4" cx="0.00" cy="0.00" transform="translate(1132.54,873.47) rotate(-41.1)" rx="1.17" ry="0.20"/>
<path fill="#4e5da7" d="
  M 1075.98 876.22
  Q 1073.92 876.51 1071.55 876.01
  Q 1074.65 874.70 1075.98 876.22
  Z"
/>
<path fill="#cdd8e4" d="
  M 1531.75 887.54
  L 1533.11 892.12
  Q 1531.15 891.19 1531.75 887.54
  Z"
/>
<path fill="#4e5da7" d="
  M 1089.54 889.78
  Q 1091.18 890.56 1091.52 892.32
  Q 1090.18 891.78 1089.54 889.78
  Z"
/>
<path fill="#cdd8e4" d="
  M 1088.93 899.30
  Q 1086.36 894.62 1084.39 893.45
  Q 1084.69 893.11 1085.72 893.07
  A 0.93 0.91 71.2 0 1 1086.51 893.47
  Q 1088.06 895.76 1088.93 899.30
  Z"
/>
<path fill="#4e5da7" d="
  M 1099.44 894.91
  Q 1095.73 897.26 1091.87 899.14
  Q 1091.37 899.38 1090.82 899.39
  Q 1090.14 899.39 1089.71 899.34
  L 1099.44 894.91
  Z"
/>
</svg>
