<?xml version="1.0" encoding="UTF-8" standalone="no"?>
<!DOCTYPE svg PUBLIC "-//W3C//DTD SVG 1.1//EN" "http://www.w3.org/Graphics/SVG/1.1/DTD/svg11.dtd">
<svg xmlns="http://www.w3.org/2000/svg" version="1.1" viewBox="0.00 0.00 1966.00 1066.00">
<g stroke-width="2.00" fill="none" stroke-linecap="butt">
<path stroke="#878e96" vector-effect="non-scaling-stroke" d="
  M 1865.23 170.19
  L 99.78 170.19"
/>
<path stroke="#878e96" vector-effect="non-scaling-stroke" d="
  M 1865.24 365.75
  L 99.77 365.75"
/>
<path stroke="#c9d3dd" vector-effect="non-scaling-stroke" d="
  M 908.52 504.57
  Q 909.83 506.35 911.98 506.40"
/>
<path stroke="#878e96" vector-effect="non-scaling-stroke" d="
  M 911.98 506.40
  Q 913.58 506.63 915.25 506.63
  Q 1118.87 506.57 1322.50 506.57
  Q 1329.84 506.57 1332.67 501.70
  Q 1334.16 499.12 1334.16 496.10
  Q 1334.14 465.87 1334.18 435.37
  C 1334.18 429.48 1330.53 424.46 1324.24 424.46
  Q 1117.87 424.48 913.48 424.47
  C 908.37 424.47 904.72 430.06 904.73 434.70
  Q 904.80 463.22 904.72 495.14
  C 904.71 498.43 905.59 502.75 908.52 504.57"
/>
<path stroke="#5f6974" vector-effect="non-scaling-stroke" d="
  M 911.98 506.40
  L 908.52 504.57"
/>
<path stroke="#878e96" vector-effect="non-scaling-stroke" d="
  M 1379.01 428.42
  Q 1377.23 430.84 1377.22 433.00
  Q 1377.18 465.75 1377.23 498.50
  Q 1377.23 501.07 1379.68 503.46"
/>
<path stroke="#c9d3dd" vector-effect="non-scaling-stroke" d="
  M 1379.68 503.46
  Q 1382.53 507.25 1386.95 506.57"
/>
<path stroke="#878e96" vector-effect="non-scaling-stroke" d="
  M 1386.95 506.57
  L 1778.38 506.40"
/>
<path stroke="#c9d3dd" vector-effect="non-scaling-stroke" d="
  M 1778.38 506.40
  Q 1780.50 506.53 1781.83 505.01"
/>
<path stroke="#878e96" vector-effect="non-scaling-stroke" d="
  M 1781.83 505.01
  Q 1786.00 501.87 1786.00 497.75
  Q 1786.02 465.88 1786.01 434.00
  Q 1786.01 431.16 1784.20 428.50"
/>
<path stroke="#c9d3dd" vector-effect="non-scaling-stroke" d="
  M 1784.20 428.50
  Q 1782.62 424.80 1778.27 424.47"
/>
<path stroke="#878e96" vector-effect="non-scaling-stroke" d="
  M 1778.27 424.47
  L 1384.55 424.47"
/>
<path stroke="#c9d3dd" vector-effect="non-scaling-stroke" d="
  M 1384.55 424.47
  Q 1380.89 425.16 1379.01 428.42"
/>
<path stroke="#5f6974" vector-effect="non-scaling-stroke" d="
  M 1384.55 424.47
  Q 1384.08 425.52 1382.54 426.01
  Q 1382.07 426.16 1381.67 426.45
  L 1379.01 428.42"
/>
<path stroke="#5f6974" vector-effect="non-scaling-stroke" d="
  M 1778.27 424.47
  L 1784.20 428.50"
/>
<path stroke="#5f6974" vector-effect="non-scaling-stroke" d="
  M 1781.83 505.01
  Q 1780.04 505.09 1778.38 506.40"
/>
<path stroke="#5f6974" vector-effect="non-scaling-stroke" d="
  M 1386.95 506.57
  Q 1383.33 505.78 1379.68 503.46"
/>
<path stroke="#dfe8f2" vector-effect="non-scaling-stroke" d="
  M 504.73 572.20
  A 29.44 29.44 0.0 0 0 475.29 542.76
  L 215.23 542.76
  A 29.44 29.44 0.0 0 0 185.79 572.20
  L 185.79 867.34
  A 29.44 29.44 0.0 0 0 215.23 896.78
  L 475.29 896.78
  A 29.44 29.44 0.0 0 0 504.73 867.34
  L 504.73 572.20"
/>
<path stroke="#c9d3dd" vector-effect="non-scaling-stroke" d="
  M 1783.52 546.22
  Q 1783.77 545.25 1782.44 544.43"
/>
<path stroke="#dfe8f2" vector-effect="non-scaling-stroke" d="
  M 1782.44 544.43
  Q 1781.35 542.88 1779.78 543.61"
/>
<path stroke="#878e96" vector-effect="non-scaling-stroke" d="
  M 1779.78 543.61
  Q 1777.28 542.71 1774.75 542.71
  Q 1475.40 542.76 1176.05 542.76
  Q 1172.43 542.76 1170.17 543.61
  C 1165.74 545.28 1163.91 549.19 1163.92 553.91
  Q 1164.03 585.05 1163.96 614.51
  C 1163.95 619.44 1167.51 624.90 1172.97 624.91
  Q 1478.06 625.04 1775.90 624.93
  Q 1782.02 624.93 1784.61 620.28
  Q 1786.00 617.78 1786.00 612.47
  Q 1786.03 581.86 1785.99 551.25
  Q 1785.99 548.84 1783.52 546.22"
/>
<path stroke="#757e89" vector-effect="non-scaling-stroke" d="
  M 1779.78 543.61
  L 1781.54 544.57"
/>
<path stroke="#5f6974" vector-effect="non-scaling-stroke" d="
  M 1781.54 544.57
  L 1783.52 546.22"
/>
<path stroke="#b7c3cf" vector-effect="non-scaling-stroke" d="
  M 1782.44 544.43
  L 1781.54 544.57"
/>
<path stroke="#878e96" vector-effect="non-scaling-stroke" d="
  M 1786.02 824.57
  A 9.88 9.88 0.0 0 0 1776.14 814.69
  L 1537.68 814.69
  A 9.88 9.88 0.0 0 0 1527.80 824.57
  L 1527.80 886.91
  A 9.88 9.88 0.0 0 0 1537.68 896.79
  L 1776.14 896.79
  A 9.88 9.88 0.0 0 0 1786.02 886.91
  L 1786.02 824.57"
/>
<path stroke="#c9d3dd" vector-effect="non-scaling-stroke" d="
  M 1215.95 894.48
  Q 1216.49 897.31 1219.74 898.52"
/>
<path stroke="#878e96" vector-effect="non-scaling-stroke" d="
  M 1219.74 898.52
  Q 1221.52 899.75 1223.00 899.75
  Q 1342.96 899.74 1462.93 899.76
  Q 1467.29 899.76 1469.10 899.06
  C 1472.72 897.65 1475.02 893.51 1475.02 889.53
  Q 1474.99 860.25 1475.00 827.89
  C 1475.01 821.78 1470.71 817.58 1464.40 817.58
  Q 1344.53 817.56 1225.25 817.58
  Q 1218.87 817.59 1216.21 822.34
  Q 1214.80 824.87 1214.80 830.44
  Q 1214.77 859.47 1214.79 888.50
  Q 1214.79 891.63 1215.95 894.48"
/>
<path stroke="#5f6974" vector-effect="non-scaling-stroke" d="
  M 1219.74 898.52
  L 1215.95 894.48"
/>
<path stroke="#b7c3cf" vector-effect="non-scaling-stroke" d="
  M 301.87 601.80
  C 307.66 599.56 313.40 597.33 319.40 595.83
  C 356.14 586.65 394.60 596.96 421.36 623.64
  Q 424.91 627.18 428.48 631.13
  C 432.05 635.07 438.29 629.60 434.45 625.10
  C 418.64 606.62 397.91 593.39 374.48 587.51
  Q 336.37 577.93 299.33 593.65
  Q 296.50 594.85 296.15 597.90
  Q 296.06 598.67 296.38 599.31
  Q 298.28 603.20 301.87 601.80"
/>
<path stroke="#b7c3cf" vector-effect="non-scaling-stroke" d="
  M 271.95 634.93
  Q 266.88 640.44 263.84 645.44
  Q 259.88 651.97 255.95 659.63
  Q 253.50 664.40 252.50 668.10
  Q 251.53 671.68 255.17 673.51
  Q 255.29 673.56 255.41 673.58
  Q 259.30 674.15 260.59 670.61
  Q 270.29 643.91 291.61 627.89
  Q 314.23 610.90 342.68 609.65
  Q 352.40 609.22 362.70 611.24
  Q 387.21 616.05 406.23 632.99
  Q 421.17 646.29 428.85 664.57
  Q 431.10 669.94 433.12 675.46
  Q 434.05 678.01 436.56 681.97
  Q 438.61 685.21 442.02 683.29
  Q 442.09 683.25 442.15 683.21
  Q 445.56 680.95 443.68 677.50
  Q 442.34 675.05 441.24 672.55
  Q 440.05 669.84 439.08 667.12
  Q 429.41 639.87 406.46 621.96
  Q 392.78 611.27 376.07 605.86
  Q 345.44 595.95 313.99 606.37
  Q 306.18 608.96 296.46 614.62
  Q 286.85 620.21 281.42 625.32
  Q 276.59 629.87 271.95 634.93"
/>
<path stroke="#b7c3cf" vector-effect="non-scaling-stroke" d="
  M 275.04 608.56
  Q 263.04 617.09 254.38 628.93
  Q 252.11 632.03 255.31 634.59
  Q 255.38 634.65 255.45 634.69
  Q 258.93 636.86 261.33 633.81
  Q 269.78 623.04 278.74 616.21
  Q 282.76 613.15 287.61 609.92
  Q 290.86 607.75 289.47 604.10
  Q 289.21 603.41 288.66 602.93
  Q 286.56 601.06 284.08 602.39
  Q 281.85 603.58 279.14 605.59
  Q 277.12 607.09 275.04 608.56"
/>
<path stroke="#b7c3cf" vector-effect="non-scaling-stroke" d="
  M 303.09 630.67
  Q 290.41 638.58 283.28 647.69
  Q 276.66 656.15 272.21 665.25
  Q 262.74 684.62 264.79 707.64
  Q 265.56 716.23 268.61 725.70
  Q 271.46 734.53 274.99 742.71
  Q 276.77 746.85 280.68 745.30
  Q 280.76 745.27 280.84 745.24
  Q 284.72 743.35 282.92 739.28
  Q 278.67 729.72 276.05 720.69
  Q 270.15 700.34 275.40 681.15
  Q 278.22 670.86 283.18 662.65
  Q 293.35 645.82 310.55 636.17
  Q 338.86 620.29 370.81 631.25
  Q 383.31 635.53 395.06 645.88
  Q 398.08 648.54 401.20 645.54
  Q 401.28 645.46 401.34 645.37
  Q 403.61 641.89 400.44 639.14
  Q 379.55 621.03 353.93 618.63
  Q 333.70 616.74 315.80 624.05
  Q 309.73 626.54 303.09 630.67"
/>
<path stroke="#b7c3cf" vector-effect="non-scaling-stroke" d="
  M 366.15 647.84
  Q 384.84 655.39 394.97 672.91
  Q 396.02 674.73 400.58 686.46
  Q 406.59 701.89 419.15 716.68
  Q 426.57 725.42 436.18 734.40
  Q 439.37 737.39 442.32 734.41
  Q 442.38 734.35 442.43 734.29
  Q 445.25 731.07 442.01 728.09
  Q 431.44 718.37 422.64 707.37
  Q 413.47 695.92 408.38 682.86
  Q 403.95 671.48 403.24 670.17
  Q 392.34 650.04 371.39 640.74
  Q 359.20 635.33 346.07 635.47
  Q 342.18 635.51 341.71 639.54
  Q 341.70 639.63 341.70 639.72
  Q 342.02 643.85 346.20 643.96
  Q 357.31 644.27 366.15 647.84"
/>
<path stroke="#b7c3cf" vector-effect="non-scaling-stroke" d="
  M 306.19 649.79
  C 299.60 654.82 294.58 660.98 290.18 668.14
  C 281.98 681.48 279.69 698.45 283.03 713.30
  Q 284.67 720.60 288.13 729.57
  Q 297.59 754.07 314.07 777.28
  Q 316.48 780.67 319.84 778.21
  Q 319.88 778.18 319.98 778.11
  Q 323.36 775.62 320.80 772.00
  Q 306.63 751.93 297.36 729.49
  Q 293.54 720.25 291.80 713.27
  Q 287.64 696.52 293.69 680.43
  Q 300.26 662.97 315.52 653.21
  Q 322.14 648.97 328.98 646.50
  Q 332.88 645.08 331.93 641.22
  Q 331.78 640.58 331.35 640.05
  Q 329.32 637.53 326.24 638.56
  Q 319.45 640.83 313.62 644.56
  Q 310.03 646.86 306.19 649.79"
/>
<path stroke="#b7c3cf" vector-effect="non-scaling-stroke" d="
  M 424.88 677.94
  Q 423.56 674.89 422.51 671.74
  Q 419.29 662.16 412.77 653.15
  Q 410.53 650.04 407.09 652.17
  Q 407.01 652.21 406.95 652.26
  Q 403.60 654.78 406.21 658.60
  Q 409.09 662.83 411.20 667.00
  Q 413.48 671.48 415.48 677.26
  Q 421.72 695.20 437.21 711.07
  Q 440.15 714.08 443.33 711.31
  Q 443.40 711.25 443.46 711.19
  Q 446.18 708.11 443.45 705.27
  Q 431.16 692.53 424.88 677.94"
/>
<path stroke="#b7c3cf" vector-effect="non-scaling-stroke" d="
  M 318.08 661.51
  Q 310.50 667.49 306.07 674.49
  Q 298.00 687.26 298.80 702.38
  Q 299.13 708.45 301.19 714.96
  Q 303.12 721.04 305.38 726.46
  Q 320.33 762.43 348.27 791.99
  Q 352.87 796.87 357.35 801.46
  Q 362.14 806.38 366.83 810.53
  Q 369.87 813.22 372.57 810.23
  Q 372.63 810.17 372.68 810.11
  Q 375.41 807.10 372.41 804.24
  Q 359.08 791.54 347.88 778.73
  Q 335.76 764.87 326.09 748.66
  Q 317.20 733.74 311.06 717.50
  Q 308.17 709.85 307.57 703.84
  Q 306.82 696.44 308.61 689.81
  Q 311.64 678.63 320.48 670.76
  Q 328.19 663.90 338.32 661.93
  Q 353.92 658.90 367.29 667.59
  Q 374.44 672.23 378.89 679.61
  Q 381.32 683.63 383.95 691.22
  Q 386.31 698.03 389.88 704.23
  Q 391.80 707.54 395.41 705.89
  Q 395.48 705.86 395.55 705.82
  Q 399.01 703.86 397.36 700.43
  Q 395.41 696.38 393.88 692.99
  Q 392.29 689.49 391.07 685.75
  Q 389.81 681.89 388.01 678.32
  Q 384.42 671.20 378.49 665.54
  Q 372.70 660.02 365.47 656.74
  Q 349.64 649.56 331.97 654.63
  Q 323.86 656.96 318.08 661.51"
/>
<path stroke="#b7c3cf" vector-effect="non-scaling-stroke" d="
  M 329.85 674.46
  Q 327.27 676.10 325.42 677.93
  Q 311.62 691.67 317.98 711.01
  Q 319.29 715.01 323.31 713.75
  Q 323.42 713.71 323.47 713.70
  Q 327.70 712.37 325.98 707.79
  Q 323.14 700.21 325.57 692.95
  Q 328.21 685.06 335.42 681.07
  Q 342.74 677.01 351.49 679.06
  Q 357.54 680.48 362.53 686.12
  Q 364.95 688.85 366.31 692.92
  Q 374.69 717.87 393.46 739.49
  Q 411.03 759.75 435.68 779.31
  Q 438.74 781.75 441.75 778.81
  Q 441.81 778.75 441.86 778.68
  Q 444.22 775.11 440.75 772.38
  Q 418.29 754.68 400.44 734.41
  Q 382.56 714.11 374.51 690.51
  Q 369.43 675.62 354.24 670.90
  Q 348.54 669.13 342.03 670.01
  Q 335.47 670.91 329.85 674.46"
/>
<path stroke="#b7c3cf" vector-effect="non-scaling-stroke" d="
  M 248.21 685.58
  Q 245.55 705.76 250.20 723.62
  Q 254.51 740.21 263.20 758.24
  Q 282.26 797.83 312.82 829.49
  Q 315.64 832.41 318.70 829.56
  Q 318.76 829.50 318.82 829.44
  Q 321.84 826.53 318.73 823.29
  Q 292.92 796.32 275.75 764.07
  Q 265.33 744.51 259.58 725.60
  Q 253.78 706.52 256.72 686.87
  Q 257.34 682.75 253.14 681.68
  Q 253.04 681.65 252.93 681.66
  Q 248.71 681.81 248.21 685.58"
/>
<path stroke="#b7c3cf" vector-effect="non-scaling-stroke" d="
  M 392.74 787.64
  C 393.62 788.37 394.42 789.43 395.28 790.20
  Q 408.99 802.56 423.82 813.22
  C 428.27 816.41 433.51 809.80 428.63 806.21
  Q 400.32 785.45 377.35 760.26
  C 362.10 743.53 349.15 723.20 341.91 701.61
  C 340.00 695.92 347.99 692.81 349.92 698.43
  C 357.95 721.86 372.05 742.99 389.56 760.65
  C 393.69 764.81 399.50 759.24 396.04 755.26
  Q 392.78 751.52 389.34 747.77
  Q 368.72 725.26 358.97 697.84
  Q 357.10 692.58 354.99 690.55
  C 350.11 685.87 342.67 685.60 337.56 690.04
  C 331.67 695.15 332.57 701.74 335.34 708.85
  Q 345.27 734.40 361.99 755.30
  Q 372.92 768.95 386.17 782.19
  Q 386.37 782.38 386.65 782.39
  Q 387.09 782.41 387.40 782.73
  Q 389.88 785.28 392.74 787.64"
/>
<path stroke="#b7c3cf" vector-effect="non-scaling-stroke" d="
  M 411.75 721.18
  Q 408.76 717.70 405.93 713.94
  Q 403.82 711.14 400.18 713.30
  Q 400.06 713.36 399.97 713.46
  Q 397.21 716.39 399.40 719.40
  Q 405.19 727.34 412.76 735.27
  Q 424.99 748.09 437.14 758.33
  Q 440.03 760.75 443.20 758.00
  Q 443.26 757.96 443.30 757.90
  Q 445.77 754.40 442.41 751.54
  Q 425.46 737.15 411.75 721.18"
/>
<path stroke="#b7c3cf" vector-effect="non-scaling-stroke" d="
  M 381.88 789.36
  Q 373.35 781.16 365.27 772.45
  Q 345.48 751.11 332.60 724.41
  Q 330.66 720.39 326.86 722.05
  Q 326.78 722.09 326.71 722.13
  Q 323.05 724.08 324.67 727.51
  Q 333.32 745.85 344.40 760.68
  Q 355.69 775.82 372.90 792.71
  Q 392.00 811.47 413.20 826.76
  Q 416.60 829.22 419.14 825.95
  Q 419.20 825.88 419.25 825.81
  Q 421.75 822.48 418.40 820.01
  Q 398.57 805.40 381.88 789.36"
/>
<path stroke="#b7c3cf" vector-effect="non-scaling-stroke" d="
  M 282.40 758.44
  Q 294.19 780.33 307.62 797.38
  Q 330.26 826.11 365.51 854.95
  Q 368.67 857.54 371.36 854.36
  Q 371.42 854.29 371.47 854.22
  Q 373.96 850.90 370.87 848.36
  Q 346.76 828.58 326.93 806.90
  Q 304.99 782.91 290.05 754.47
  Q 288.06 750.67 284.12 752.23
  Q 284.01 752.28 283.91 752.35
  Q 280.53 754.98 282.40 758.44"
/>
<path stroke="#b7c3cf" vector-effect="non-scaling-stroke" d="
  M 262.12 774.86
  Q 258.77 768.77 255.22 761.63
  Q 253.51 758.20 249.68 760.06
  Q 249.61 760.09 249.54 760.14
  Q 246.06 762.22 247.83 765.89
  Q 263.57 798.61 286.91 826.35
  Q 297.24 838.63 310.49 851.67
  Q 313.19 854.33 316.36 851.55
  Q 316.43 851.49 316.49 851.42
  Q 319.22 848.25 316.14 845.21
  Q 297.39 826.70 284.33 809.41
  Q 272.43 793.66 262.12 774.86"
/>
<path stroke="#b7c3cf" vector-effect="non-scaling-stroke" d="
  M 402.12 767.09
  Q 402.06 767.16 402.00 767.23
  Q 399.55 770.58 402.26 773.17
  Q 415.35 785.71 431.36 797.56
  Q 434.53 799.91 437.29 796.78
  Q 437.34 796.72 437.39 796.65
  Q 439.91 793.27 436.35 790.61
  Q 421.95 779.84 408.37 767.23
  Q 405.16 764.24 402.12 767.09"
/>
<path stroke="#b7c3cf" vector-effect="non-scaling-stroke" d="
  M 390.74 847.50
  Q 393.02 843.92 389.59 841.28
  Q 357.73 816.72 331.16 785.70
  Q 328.28 782.34 325.08 785.05
  Q 325.01 785.11 324.95 785.18
  Q 322.04 788.25 324.89 791.59
  Q 351.58 822.80 384.36 848.08
  Q 387.60 850.58 390.65 847.61
  Q 390.70 847.56 390.74 847.50"
/>
<path stroke="#b7c3cf" vector-effect="non-scaling-stroke" d="
  M 255.38 812.59
  Q 264.72 826.28 275.72 838.96
  Q 278.51 842.18 281.85 839.61
  Q 281.89 839.58 281.94 839.54
  Q 285.04 836.64 282.16 833.31
  Q 271.36 820.79 262.61 807.82
  Q 260.23 804.29 256.35 806.01
  Q 256.24 806.06 256.16 806.14
  Q 252.95 809.02 255.38 812.59"
/>
<path stroke="#b7c3cf" vector-effect="non-scaling-stroke" d="
  M 406.3110 837.7486
  A 4.09 4.09 0.0 0 0 405.6462 832.0028
  L 385.1605 815.7660
  A 4.09 4.09 0.0 0 0 379.4147 816.4309
  L 379.1290 816.7914
  A 4.09 4.09 0.0 0 0 379.7938 822.5372
  L 400.2795 838.7740
  A 4.09 4.09 0.0 0 0 406.0253 838.1091
  L 406.3110 837.7486"
/>
<path stroke="#b7c3cf" vector-effect="non-scaling-stroke" d="
  M 347.8954 857.1609
  A 4.16 4.16 0.0 0 0 347.6696 851.2821
  L 331.3808 836.1985
  A 4.16 4.16 0.0 0 0 325.5020 836.4243
  L 325.2846 836.6591
  A 4.16 4.16 0.0 0 0 325.5104 842.5379
  L 341.7992 857.6215
  A 4.16 4.16 0.0 0 0 347.6780 857.3957
  L 347.8954 857.1609"
/>
</g>
<path fill="#f1f8ff" d="
  M 41.38 33.99
  L 41.38 287.05
  A 0.47 0.47 0.0 0 1 40.91 287.52
  L 23.97 287.46
  A 0.47 0.47 0.0 0 1 23.50 286.99
  L 23.50 16.18
  A 0.47 0.47 0.0 0 1 23.97 15.71
  L 296.80 15.71
  A 0.47 0.47 0.0 0 1 297.27 16.18
  L 297.28 33.05
  A 0.47 0.47 0.0 0 1 296.81 33.52
  L 41.85 33.52
  A 0.47 0.47 0.0 0 0 41.38 33.99
  Z"
/>
<path fill="#f1f8ff" d="
  M 1925.44 33.90
  A 0.39 0.39 0.0 0 0 1925.05 33.52
  L 1670.24 33.51
  Q 1669.72 33.51 1669.72 32.99
  L 1669.70 16.26
  Q 1669.70 15.71 1670.24 15.71
  L 1942.98 15.71
  Q 1943.50 15.71 1943.50 16.23
  L 1943.50 287.01
  A 0.51 0.50 0.0 0 1 1942.99 287.51
  L 1926.01 287.50
  A 0.40 0.40 0.0 0 1 1925.61 287.10
  Q 1925.64 169.59 1925.70 52.00
  Q 1925.71 42.92 1925.44 33.90
  Z"
/>
<path fill="#f1f8ff" d="
  M 1865.23 170.19
  L 99.78 170.19
  Q 99.71 157.75 99.79 145.23
  Q 99.85 133.51 101.24 127.90
  C 106.71 105.70 126.79 90.98 149.48 90.98
  Q 992.54 91.01 1815.95 90.96
  C 1839.35 90.96 1859.15 106.88 1864.12 129.58
  Q 1865.26 134.81 1865.25 149.49
  Q 1865.25 159.87 1865.23 170.19
  Z"
/>
<path fill="#1c242d" d="
  M 99.78 170.19
  L 1865.23 170.19
  L 1865.24 365.75
  L 99.77 365.75
  L 99.78 170.19
  Z"
/>
<path fill="#f1f8ff" d="
  M 99.77 365.75
  L 1865.24 365.75
  Q 1865.27 645.47 1865.24 925.25
  C 1865.23 948.43 1850.62 967.69 1828.32 973.55
  Q 1822.62 975.05 1810.00 975.05
  Q 983.05 974.98 155.73 975.04
  Q 142.95 975.04 137.14 973.65
  C 118.78 969.26 105.03 954.72 100.84 936.30
  Q 99.78 931.63 99.78 917.24
  Q 99.75 641.47 99.77 365.75
  Z
  M 908.52 504.57
  Q 909.83 506.35 911.98 506.40
  Q 913.58 506.63 915.25 506.63
  Q 1118.87 506.57 1322.50 506.57
  Q 1329.84 506.57 1332.67 501.70
  Q 1334.16 499.12 1334.16 496.10
  Q 1334.14 465.87 1334.18 435.37
  C 1334.18 429.48 1330.53 424.46 1324.24 424.46
  Q 1117.87 424.48 913.48 424.47
  C 908.37 424.47 904.72 430.06 904.73 434.70
  Q 904.80 463.22 904.72 495.14
  C 904.71 498.43 905.59 502.75 908.52 504.57
  Z
  M 1379.01 428.42
  Q 1377.23 430.84 1377.22 433.00
  Q 1377.18 465.75 1377.23 498.50
  Q 1377.23 501.07 1379.68 503.46
  Q 1382.53 507.25 1386.95 506.57
  L 1778.38 506.40
  Q 1780.50 506.53 1781.83 505.01
  Q 1786.00 501.87 1786.00 497.75
  Q 1786.02 465.88 1786.01 434.00
  Q 1786.01 431.16 1784.20 428.50
  Q 1782.62 424.80 1778.27 424.47
  L 1384.55 424.47
  Q 1380.89 425.16 1379.01 428.42
  Z
  M 504.73 572.20
  A 29.44 29.44 0.0 0 0 475.29 542.76
  L 215.23 542.76
  A 29.44 29.44 0.0 0 0 185.79 572.20
  L 185.79 867.34
  A 29.44 29.44 0.0 0 0 215.23 896.78
  L 475.29 896.78
  A 29.44 29.44 0.0 0 0 504.73 867.34
  L 504.73 572.20
  Z
  M 1783.52 546.22
  Q 1783.77 545.25 1782.44 544.43
  Q 1781.35 542.88 1779.78 543.61
  Q 1777.28 542.71 1774.75 542.71
  Q 1475.40 542.76 1176.05 542.76
  Q 1172.43 542.76 1170.17 543.61
  C 1165.74 545.28 1163.91 549.19 1163.92 553.91
  Q 1164.03 585.05 1163.96 614.51
  C 1163.95 619.44 1167.51 624.90 1172.97 624.91
  Q 1478.06 625.04 1775.90 624.93
  Q 1782.02 624.93 1784.61 620.28
  Q 1786.00 617.78 1786.00 612.47
  Q 1786.03 581.86 1785.99 551.25
  Q 1785.99 548.84 1783.52 546.22
  Z
  M 1786.02 824.57
  A 9.88 9.88 0.0 0 0 1776.14 814.69
  L 1537.68 814.69
  A 9.88 9.88 0.0 0 0 1527.80 824.57
  L 1527.80 886.91
  A 9.88 9.88 0.0 0 0 1537.68 896.79
  L 1776.14 896.79
  A 9.88 9.88 0.0 0 0 1786.02 886.91
  L 1786.02 824.57
  Z
  M 1215.95 894.48
  Q 1216.49 897.31 1219.74 898.52
  Q 1221.52 899.75 1223.00 899.75
  Q 1342.96 899.74 1462.93 899.76
  Q 1467.29 899.76 1469.10 899.06
  C 1472.72 897.65 1475.02 893.51 1475.02 889.53
  Q 1474.99 860.25 1475.00 827.89
  C 1475.01 821.78 1470.71 817.58 1464.40 817.58
  Q 1344.53 817.56 1225.25 817.58
  Q 1218.87 817.59 1216.21 822.34
  Q 1214.80 824.87 1214.80 830.44
  Q 1214.77 859.47 1214.79 888.50
  Q 1214.79 891.63 1215.95 894.48
  Z"
/>
<path fill="#1c242d" d="
  M 911.98 506.40
  L 908.52 504.57
  C 905.59 502.75 904.71 498.43 904.72 495.14
  Q 904.80 463.22 904.73 434.70
  C 904.72 430.06 908.37 424.47 913.48 424.47
  Q 1117.87 424.48 1324.24 424.46
  C 1330.53 424.46 1334.18 429.48 1334.18 435.37
  Q 1334.14 465.87 1334.16 496.10
  Q 1334.16 499.12 1332.67 501.70
  Q 1329.84 506.57 1322.50 506.57
  Q 1118.87 506.57 915.25 506.63
  Q 913.58 506.63 911.98 506.40
  Z"
/>
<path fill="#a1adba" d="
  M 1384.55 424.47
  Q 1384.08 425.52 1382.54 426.01
  Q 1382.07 426.16 1381.67 426.45
  L 1379.01 428.42
  Q 1380.89 425.16 1384.55 424.47
  Z"
/>
<path fill="#1c242d" d="
  M 1384.55 424.47
  L 1778.27 424.47
  L 1784.20 428.50
  Q 1786.01 431.16 1786.01 434.00
  Q 1786.02 465.88 1786.00 497.75
  Q 1786.00 501.87 1781.83 505.01
  Q 1780.04 505.09 1778.38 506.40
  L 1386.95 506.57
  Q 1383.33 505.78 1379.68 503.46
  Q 1377.23 501.07 1377.23 498.50
  Q 1377.18 465.75 1377.22 433.00
  Q 1377.23 430.84 1379.01 428.42
  L 1381.67 426.45
  Q 1382.07 426.16 1382.54 426.01
  Q 1384.08 425.52 1384.55 424.47
  Z"
/>
<path fill="#a1adba" d="
  M 1778.27 424.47
  Q 1782.62 424.80 1784.20 428.50
  L 1778.27 424.47
  Z"
/>
<path fill="#a1adba" d="
  M 1379.68 503.46
  Q 1383.33 505.78 1386.95 506.57
  Q 1382.53 507.25 1379.68 503.46
  Z"
/>
<path fill="#a1adba" d="
  M 908.52 504.57
  L 911.98 506.40
  Q 909.83 506.35 908.52 504.57
  Z"
/>
<path fill="#a1adba" d="
  M 1781.83 505.01
  Q 1780.50 506.53 1778.38 506.40
  Q 1780.04 505.09 1781.83 505.01
  Z"
/>
<path fill="#cdd8e4" d="
  M 504.73 867.34
  A 29.44 29.44 0.0 0 1 475.29 896.78
  L 215.23 896.78
  A 29.44 29.44 0.0 0 1 185.79 867.34
  L 185.79 572.20
  A 29.44 29.44 0.0 0 1 215.23 542.76
  L 475.29 542.76
  A 29.44 29.44 0.0 0 1 504.73 572.20
  L 504.73 867.34
  Z
  M 301.87 601.80
  C 307.66 599.56 313.40 597.33 319.40 595.83
  C 356.14 586.65 394.60 596.96 421.36 623.64
  Q 424.91 627.18 428.48 631.13
  C 432.05 635.07 438.29 629.60 434.45 625.10
  C 418.64 606.62 397.91 593.39 374.48 587.51
  Q 336.37 577.93 299.33 593.65
  Q 296.50 594.85 296.15 597.90
  Q 296.06 598.67 296.38 599.31
  Q 298.28 603.20 301.87 601.80
  Z
  M 271.95 634.93
  Q 266.88 640.44 263.84 645.44
  Q 259.88 651.97 255.95 659.63
  Q 253.50 664.40 252.50 668.10
  Q 251.53 671.68 255.17 673.51
  Q 255.29 673.56 255.41 673.58
  Q 259.30 674.15 260.59 670.61
  Q 270.29 643.91 291.61 627.89
  Q 314.23 610.90 342.68 609.65
  Q 352.40 609.22 362.70 611.24
  Q 387.21 616.05 406.23 632.99
  Q 421.17 646.29 428.85 664.57
  Q 431.10 669.94 433.12 675.46
  Q 434.05 678.01 436.56 681.97
  Q 438.61 685.21 442.02 683.29
  Q 442.09 683.25 442.15 683.21
  Q 445.56 680.95 443.68 677.50
  Q 442.34 675.05 441.24 672.55
  Q 440.05 669.84 439.08 667.12
  Q 429.41 639.87 406.46 621.96
  Q 392.78 611.27 376.07 605.86
  Q 345.44 595.95 313.99 606.37
  Q 306.18 608.96 296.46 614.62
  Q 286.85 620.21 281.42 625.32
  Q 276.59 629.87 271.95 634.93
  Z
  M 275.04 608.56
  Q 263.04 617.09 254.38 628.93
  Q 252.11 632.03 255.31 634.59
  Q 255.38 634.65 255.45 634.69
  Q 258.93 636.86 261.33 633.81
  Q 269.78 623.04 278.74 616.21
  Q 282.76 613.15 287.61 609.92
  Q 290.86 607.75 289.47 604.10
  Q 289.21 603.41 288.66 602.93
  Q 286.56 601.06 284.08 602.39
  Q 281.85 603.58 279.14 605.59
  Q 277.12 607.09 275.04 608.56
  Z
  M 303.09 630.67
  Q 290.41 638.58 283.28 647.69
  Q 276.66 656.15 272.21 665.25
  Q 262.74 684.62 264.79 707.64
  Q 265.56 716.23 268.61 725.70
  Q 271.46 734.53 274.99 742.71
  Q 276.77 746.85 280.68 745.30
  Q 280.76 745.27 280.84 745.24
  Q 284.72 743.35 282.92 739.28
  Q 278.67 729.72 276.05 720.69
  Q 270.15 700.34 275.40 681.15
  Q 278.22 670.86 283.18 662.65
  Q 293.35 645.82 310.55 636.17
  Q 338.86 620.29 370.81 631.25
  Q 383.31 635.53 395.06 645.88
  Q 398.08 648.54 401.20 645.54
  Q 401.28 645.46 401.34 645.37
  Q 403.61 641.89 400.44 639.14
  Q 379.55 621.03 353.93 618.63
  Q 333.70 616.74 315.80 624.05
  Q 309.73 626.54 303.09 630.67
  Z
  M 366.15 647.84
  Q 384.84 655.39 394.97 672.91
  Q 396.02 674.73 400.58 686.46
  Q 406.59 701.89 419.15 716.68
  Q 426.57 725.42 436.18 734.40
  Q 439.37 737.39 442.32 734.41
  Q 442.38 734.35 442.43 734.29
  Q 445.25 731.07 442.01 728.09
  Q 431.44 718.37 422.64 707.37
  Q 413.47 695.92 408.38 682.86
  Q 403.95 671.48 403.24 670.17
  Q 392.34 650.04 371.39 640.74
  Q 359.20 635.33 346.07 635.47
  Q 342.18 635.51 341.71 639.54
  Q 341.70 639.63 341.70 639.72
  Q 342.02 643.85 346.20 643.96
  Q 357.31 644.27 366.15 647.84
  Z
  M 306.19 649.79
  C 299.60 654.82 294.58 660.98 290.18 668.14
  C 281.98 681.48 279.69 698.45 283.03 713.30
  Q 284.67 720.60 288.13 729.57
  Q 297.59 754.07 314.07 777.28
  Q 316.48 780.67 319.84 778.21
  Q 319.88 778.18 319.98 778.11
  Q 323.36 775.62 320.80 772.00
  Q 306.63 751.93 297.36 729.49
  Q 293.54 720.25 291.80 713.27
  Q 287.64 696.52 293.69 680.43
  Q 300.26 662.97 315.52 653.21
  Q 322.14 648.97 328.98 646.50
  Q 332.88 645.08 331.93 641.22
  Q 331.78 640.58 331.35 640.05
  Q 329.32 637.53 326.24 638.56
  Q 319.45 640.83 313.62 644.56
  Q 310.03 646.86 306.19 649.79
  Z
  M 424.88 677.94
  Q 423.56 674.89 422.51 671.74
  Q 419.29 662.16 412.77 653.15
  Q 410.53 650.04 407.09 652.17
  Q 407.01 652.21 406.95 652.26
  Q 403.60 654.78 406.21 658.60
  Q 409.09 662.83 411.20 667.00
  Q 413.48 671.48 415.48 677.26
  Q 421.72 695.20 437.21 711.07
  Q 440.15 714.08 443.33 711.31
  Q 443.40 711.25 443.46 711.19
  Q 446.18 708.11 443.45 705.27
  Q 431.16 692.53 424.88 677.94
  Z
  M 318.08 661.51
  Q 310.50 667.49 306.07 674.49
  Q 298.00 687.26 298.80 702.38
  Q 299.13 708.45 301.19 714.96
  Q 303.12 721.04 305.38 726.46
  Q 320.33 762.43 348.27 791.99
  Q 352.87 796.87 357.35 801.46
  Q 362.14 806.38 366.83 810.53
  Q 369.87 813.22 372.57 810.23
  Q 372.63 810.17 372.68 810.11
  Q 375.41 807.10 372.41 804.24
  Q 359.08 791.54 347.88 778.73
  Q 335.76 764.87 326.09 748.66
  Q 317.20 733.74 311.06 717.50
  Q 308.17 709.85 307.57 703.84
  Q 306.82 696.44 308.61 689.81
  Q 311.64 678.63 320.48 670.76
  Q 328.19 663.90 338.32 661.93
  Q 353.92 658.90 367.29 667.59
  Q 374.44 672.23 378.89 679.61
  Q 381.32 683.63 383.95 691.22
  Q 386.31 698.03 389.88 704.23
  Q 391.80 707.54 395.41 705.89
  Q 395.48 705.86 395.55 705.82
  Q 399.01 703.86 397.36 700.43
  Q 395.41 696.38 393.88 692.99
  Q 392.29 689.49 391.07 685.75
  Q 389.81 681.89 388.01 678.32
  Q 384.42 671.20 378.49 665.54
  Q 372.70 660.02 365.47 656.74
  Q 349.64 649.56 331.97 654.63
  Q 323.86 656.96 318.08 661.51
  Z
  M 329.85 674.46
  Q 327.27 676.10 325.42 677.93
  Q 311.62 691.67 317.98 711.01
  Q 319.29 715.01 323.31 713.75
  Q 323.42 713.71 323.47 713.70
  Q 327.70 712.37 325.98 707.79
  Q 323.14 700.21 325.57 692.95
  Q 328.21 685.06 335.42 681.07
  Q 342.74 677.01 351.49 679.06
  Q 357.54 680.48 362.53 686.12
  Q 364.95 688.85 366.31 692.92
  Q 374.69 717.87 393.46 739.49
  Q 411.03 759.75 435.68 779.31
  Q 438.74 781.75 441.75 778.81
  Q 441.81 778.75 441.86 778.68
  Q 444.22 775.11 440.75 772.38
  Q 418.29 754.68 400.44 734.41
  Q 382.56 714.11 374.51 690.51
  Q 369.43 675.62 354.24 670.90
  Q 348.54 669.13 342.03 670.01
  Q 335.47 670.91 329.85 674.46
  Z
  M 248.21 685.58
  Q 245.55 705.76 250.20 723.62
  Q 254.51 740.21 263.20 758.24
  Q 282.26 797.83 312.82 829.49
  Q 315.64 832.41 318.70 829.56
  Q 318.76 829.50 318.82 829.44
  Q 321.84 826.53 318.73 823.29
  Q 292.92 796.32 275.75 764.07
  Q 265.33 744.51 259.58 725.60
  Q 253.78 706.52 256.72 686.87
  Q 257.34 682.75 253.14 681.68
  Q 253.04 681.65 252.93 681.66
  Q 248.71 681.81 248.21 685.58
  Z
  M 392.74 787.64
  C 393.62 788.37 394.42 789.43 395.28 790.20
  Q 408.99 802.56 423.82 813.22
  C 428.27 816.41 433.51 809.80 428.63 806.21
  Q 400.32 785.45 377.35 760.26
  C 362.10 743.53 349.15 723.20 341.91 701.61
  C 340.00 695.92 347.99 692.81 349.92 698.43
  C 357.95 721.86 372.05 742.99 389.56 760.65
  C 393.69 764.81 399.50 759.24 396.04 755.26
  Q 392.78 751.52 389.34 747.77
  Q 368.72 725.26 358.97 697.84
  Q 357.10 692.58 354.99 690.55
  C 350.11 685.87 342.67 685.60 337.56 690.04
  C 331.67 695.15 332.57 701.74 335.34 708.85
  Q 345.27 734.40 361.99 755.30
  Q 372.92 768.95 386.17 782.19
  Q 386.37 782.38 386.65 782.39
  Q 387.09 782.41 387.40 782.73
  Q 389.88 785.28 392.74 787.64
  Z
  M 411.75 721.18
  Q 408.76 717.70 405.93 713.94
  Q 403.82 711.14 400.18 713.30
  Q 400.06 713.36 399.97 713.46
  Q 397.21 716.39 399.40 719.40
  Q 405.19 727.34 412.76 735.27
  Q 424.99 748.09 437.14 758.33
  Q 440.03 760.75 443.20 758.00
  Q 443.26 757.96 443.30 757.90
  Q 445.77 754.40 442.41 751.54
  Q 425.46 737.15 411.75 721.18
  Z
  M 381.88 789.36
  Q 373.35 781.16 365.27 772.45
  Q 345.48 751.11 332.60 724.41
  Q 330.66 720.39 326.86 722.05
  Q 326.78 722.09 326.71 722.13
  Q 323.05 724.08 324.67 727.51
  Q 333.32 745.85 344.40 760.68
  Q 355.69 775.82 372.90 792.71
  Q 392.00 811.47 413.20 826.76
  Q 416.60 829.22 419.14 825.95
  Q 419.20 825.88 419.25 825.81
  Q 421.75 822.48 418.40 820.01
  Q 398.57 805.40 381.88 789.36
  Z
  M 282.40 758.44
  Q 294.19 780.33 307.62 797.38
  Q 330.26 826.11 365.51 854.95
  Q 368.67 857.54 371.36 854.36
  Q 371.42 854.29 371.47 854.22
  Q 373.96 850.90 370.87 848.36
  Q 346.76 828.58 326.93 806.90
  Q 304.99 782.91 290.05 754.47
  Q 288.06 750.67 284.12 752.23
  Q 284.01 752.28 283.91 752.35
  Q 280.53 754.98 282.40 758.44
  Z
  M 262.12 774.86
  Q 258.77 768.77 255.22 761.63
  Q 253.51 758.20 249.68 760.06
  Q 249.61 760.09 249.54 760.14
  Q 246.06 762.22 247.83 765.89
  Q 263.57 798.61 286.91 826.35
  Q 297.24 838.63 310.49 851.67
  Q 313.19 854.33 316.36 851.55
  Q 316.43 851.49 316.49 851.42
  Q 319.22 848.25 316.14 845.21
  Q 297.39 826.70 284.33 809.41
  Q 272.43 793.66 262.12 774.86
  Z
  M 402.12 767.09
  Q 402.06 767.16 402.00 767.23
  Q 399.55 770.58 402.26 773.17
  Q 415.35 785.71 431.36 797.56
  Q 434.53 799.91 437.29 796.78
  Q 437.34 796.72 437.39 796.65
  Q 439.91 793.27 436.35 790.61
  Q 421.95 779.84 408.37 767.23
  Q 405.16 764.24 402.12 767.09
  Z
  M 390.74 847.50
  Q 393.02 843.92 389.59 841.28
  Q 357.73 816.72 331.16 785.70
  Q 328.28 782.34 325.08 785.05
  Q 325.01 785.11 324.95 785.18
  Q 322.04 788.25 324.89 791.59
  Q 351.58 822.80 384.36 848.08
  Q 387.60 850.58 390.65 847.61
  Q 390.70 847.56 390.74 847.50
  Z
  M 255.38 812.59
  Q 264.72 826.28 275.72 838.96
  Q 278.51 842.18 281.85 839.61
  Q 281.89 839.58 281.94 839.54
  Q 285.04 836.64 282.16 833.31
  Q 271.36 820.79 262.61 807.82
  Q 260.23 804.29 256.35 806.01
  Q 256.24 806.06 256.16 806.14
  Q 252.95 809.02 255.38 812.59
  Z
  M 406.3110 837.7486
  A 4.09 4.09 0.0 0 0 405.6462 832.0028
  L 385.1605 815.7660
  A 4.09 4.09 0.0 0 0 379.4147 816.4309
  L 379.1290 816.7914
  A 4.09 4.09 0.0 0 0 379.7938 822.5372
  L 400.2795 838.7740
  A 4.09 4.09 0.0 0 0 406.0253 838.1091
  L 406.3110 837.7486
  Z
  M 347.8954 857.1609
  A 4.16 4.16 0.0 0 0 347.6696 851.2821
  L 331.3808 836.1985
  A 4.16 4.16 0.0 0 0 325.5020 836.4243
  L 325.2846 836.6591
  A 4.16 4.16 0.0 0 0 325.5104 842.5379
  L 341.7992 857.6215
  A 4.16 4.16 0.0 0 0 347.6780 857.3957
  L 347.8954 857.1609
  Z"
/>
<path fill="#1c242d" d="
  M 1779.78 543.61
  L 1781.54 544.57
  L 1783.52 546.22
  Q 1785.99 548.84 1785.99 551.25
  Q 1786.03 581.86 1786.00 612.47
  Q 1786.00 617.78 1784.61 620.28
  Q 1782.02 624.93 1775.90 624.93
  Q 1478.06 625.04 1172.97 624.91
  C 1167.51 624.90 1163.95 619.44 1163.96 614.51
  Q 1164.03 585.05 1163.92 553.91
  C 1163.91 549.19 1165.74 545.28 1170.17 543.61
  Q 1172.43 542.76 1176.05 542.76
  Q 1475.40 542.76 1774.75 542.71
  Q 1777.28 542.71 1779.78 543.61
  Z"
/>
<path fill="#cdd8e4" d="
  M 1779.78 543.61
  Q 1781.35 542.88 1782.44 544.43
  L 1781.54 544.57
  L 1779.78 543.61
  Z"
/>
<path fill="#a1adba" d="
  M 1781.54 544.57
  L 1782.44 544.43
  Q 1783.77 545.25 1783.52 546.22
  L 1781.54 544.57
  Z"
/>
<path fill="#a1adba" d="
  M 301.87 601.80
  Q 298.28 603.20 296.38 599.31
  Q 296.06 598.67 296.15 597.90
  Q 296.50 594.85 299.33 593.65
  Q 336.37 577.93 374.48 587.51
  C 397.91 593.39 418.64 606.62 434.45 625.10
  C 438.29 629.60 432.05 635.07 428.48 631.13
  Q 424.91 627.18 421.36 623.64
  C 394.60 596.96 356.14 586.65 319.40 595.83
  C 313.40 597.33 307.66 599.56 301.87 601.80
  Z"
/>
<path fill="#a1adba" d="
  M 281.42 625.32
  Q 286.85 620.21 296.46 614.62
  Q 306.18 608.96 313.99 606.37
  Q 345.44 595.95 376.07 605.86
  Q 392.78 611.27 406.46 621.96
  Q 429.41 639.87 439.08 667.12
  Q 440.05 669.84 441.24 672.55
  Q 442.34 675.05 443.68 677.50
  Q 445.56 680.95 442.15 683.21
  Q 442.09 683.25 442.02 683.29
  Q 438.61 685.21 436.56 681.97
  Q 434.05 678.01 433.12 675.46
  Q 431.10 669.94 428.85 664.57
  Q 421.17 646.29 406.23 632.99
  Q 387.21 616.05 362.70 611.24
  Q 352.40 609.22 342.68 609.65
  Q 314.23 610.90 291.61 627.89
  Q 270.29 643.91 260.59 670.61
  Q 259.30 674.15 255.41 673.58
  Q 255.29 673.56 255.17 673.51
  Q 251.53 671.68 252.50 668.10
  Q 253.50 664.40 255.95 659.63
  Q 259.88 651.97 263.84 645.44
  Q 266.88 640.44 271.95 634.93
  Q 276.59 629.87 281.42 625.32
  Z"
/>
<path fill="#a1adba" d="
  M 279.14 605.59
  Q 281.85 603.58 284.08 602.39
  Q 286.56 601.06 288.66 602.93
  Q 289.21 603.41 289.47 604.10
  Q 290.86 607.75 287.61 609.92
  Q 282.76 613.15 278.74 616.21
  Q 269.78 623.04 261.33 633.81
  Q 258.93 636.86 255.45 634.69
  Q 255.38 634.65 255.31 634.59
  Q 252.11 632.03 254.38 628.93
  Q 263.04 617.09 275.04 608.56
  Q 277.12 607.09 279.14 605.59
  Z"
/>
<path fill="#a1adba" d="
  M 303.09 630.67
  Q 309.73 626.54 315.80 624.05
  Q 333.70 616.74 353.93 618.63
  Q 379.55 621.03 400.44 639.14
  Q 403.61 641.89 401.34 645.37
  Q 401.28 645.46 401.20 645.54
  Q 398.08 648.54 395.06 645.88
  Q 383.31 635.53 370.81 631.25
  Q 338.86 620.29 310.55 636.17
  Q 293.35 645.82 283.18 662.65
  Q 278.22 670.86 275.40 681.15
  Q 270.15 700.34 276.05 720.69
  Q 278.67 729.72 282.92 739.28
  Q 284.72 743.35 280.84 745.24
  Q 280.76 745.27 280.68 745.30
  Q 276.77 746.85 274.99 742.71
  Q 271.46 734.53 268.61 725.70
  Q 265.56 716.23 264.79 707.64
  Q 262.74 684.62 272.21 665.25
  Q 276.66 656.15 283.28 647.69
  Q 290.41 638.58 303.09 630.67
  Z"
/>
<path fill="#a1adba" d="
  M 366.15 647.84
  Q 357.31 644.27 346.20 643.96
  Q 342.02 643.85 341.70 639.72
  Q 341.70 639.63 341.71 639.54
  Q 342.18 635.51 346.07 635.47
  Q 359.20 635.33 371.39 640.74
  Q 392.34 650.04 403.24 670.17
  Q 403.95 671.48 408.38 682.86
  Q 413.47 695.92 422.64 707.37
  Q 431.44 718.37 442.01 728.09
  Q 445.25 731.07 442.43 734.29
  Q 442.38 734.35 442.32 734.41
  Q 439.37 737.39 436.18 734.40
  Q 426.57 725.42 419.15 716.68
  Q 406.59 701.89 400.58 686.46
  Q 396.02 674.73 394.97 672.91
  Q 384.84 655.39 366.15 647.84
  Z"
/>
<path fill="#a1adba" d="
  M 313.62 644.56
  Q 319.45 640.83 326.24 638.56
  Q 329.32 637.53 331.35 640.05
  Q 331.78 640.58 331.93 641.22
  Q 332.88 645.08 328.98 646.50
  Q 322.14 648.97 315.52 653.21
  Q 300.26 662.97 293.69 680.43
  Q 287.64 696.52 291.80 713.27
  Q 293.54 720.25 297.36 729.49
  Q 306.63 751.93 320.80 772.00
  Q 323.36 775.62 319.98 778.11
  Q 319.88 778.18 319.84 778.21
  Q 316.48 780.67 314.07 777.28
  Q 297.59 754.07 288.13 729.57
  Q 284.67 720.60 283.03 713.30
  C 279.69 698.45 281.98 681.48 290.18 668.14
  C 294.58 660.98 299.60 654.82 306.19 649.79
  Q 310.03 646.86 313.62 644.56
  Z"
/>
<path fill="#a1adba" d="
  M 424.88 677.94
  Q 431.16 692.53 443.45 705.27
  Q 446.18 708.11 443.46 711.19
  Q 443.40 711.25 443.33 711.31
  Q 440.15 714.08 437.21 711.07
  Q 421.72 695.20 415.48 677.26
  Q 413.48 671.48 411.20 667.00
  Q 409.09 662.83 406.21 658.60
  Q 403.60 654.78 406.95 652.26
  Q 407.01 652.21 407.09 652.17
  Q 410.53 650.04 412.77 653.15
  Q 419.29 662.16 422.51 671.74
  Q 423.56 674.89 424.88 677.94
  Z"
/>
<path fill="#a1adba" d="
  M 331.97 654.63
  Q 349.64 649.56 365.47 656.74
  Q 372.70 660.02 378.49 665.54
  Q 384.42 671.20 388.01 678.32
  Q 389.81 681.89 391.07 685.75
  Q 392.29 689.49 393.88 692.99
  Q 395.41 696.38 397.36 700.43
  Q 399.01 703.86 395.55 705.82
  Q 395.48 705.86 395.41 705.89
  Q 391.80 707.54 389.88 704.23
  Q 386.31 698.03 383.95 691.22
  Q 381.32 683.63 378.89 679.61
  Q 374.44 672.23 367.29 667.59
  Q 353.92 658.90 338.32 661.93
  Q 328.19 663.90 320.48 670.76
  Q 311.64 678.63 308.61 689.81
  Q 306.82 696.44 307.57 703.84
  Q 308.17 709.85 311.06 717.50
  Q 317.20 733.74 326.09 748.66
  Q 335.76 764.87 347.88 778.73
  Q 359.08 791.54 372.41 804.24
  Q 375.41 807.10 372.68 810.11
  Q 372.63 810.17 372.57 810.23
  Q 369.87 813.22 366.83 810.53
  Q 362.14 806.38 357.35 801.46
  Q 352.87 796.87 348.27 791.99
  Q 320.33 762.43 305.38 726.46
  Q 303.12 721.04 301.19 714.96
  Q 299.13 708.45 298.80 702.38
  Q 298.00 687.26 306.07 674.49
  Q 310.50 667.49 318.08 661.51
  Q 323.86 656.96 331.97 654.63
  Z"
/>
<path fill="#a1adba" d="
  M 329.85 674.46
  Q 335.47 670.91 342.03 670.01
  Q 348.54 669.13 354.24 670.90
  Q 369.43 675.62 374.51 690.51
  Q 382.56 714.11 400.44 734.41
  Q 418.29 754.68 440.75 772.38
  Q 444.22 775.11 441.86 778.68
  Q 441.81 778.75 441.75 778.81
  Q 438.74 781.75 435.68 779.31
  Q 411.03 759.75 393.46 739.49
  Q 374.69 717.87 366.31 692.92
  Q 364.95 688.85 362.53 686.12
  Q 357.54 680.48 351.49 679.06
  Q 342.74 677.01 335.42 681.07
  Q 328.21 685.06 325.57 692.95
  Q 323.14 700.21 325.98 707.79
  Q 327.70 712.37 323.47 713.70
  Q 323.42 713.71 323.31 713.75
  Q 319.29 715.01 317.98 711.01
  Q 311.62 691.67 325.42 677.93
  Q 327.27 676.10 329.85 674.46
  Z"
/>
<path fill="#a1adba" d="
  M 248.21 685.58
  Q 248.71 681.81 252.93 681.66
  Q 253.04 681.65 253.14 681.68
  Q 257.34 682.75 256.72 686.87
  Q 253.78 706.52 259.58 725.60
  Q 265.33 744.51 275.75 764.07
  Q 292.92 796.32 318.73 823.29
  Q 321.84 826.53 318.82 829.44
  Q 318.76 829.50 318.70 829.56
  Q 315.64 832.41 312.82 829.49
  Q 282.26 797.83 263.20 758.24
  Q 254.51 740.21 250.20 723.62
  Q 245.55 705.76 248.21 685.58
  Z"
/>
<path fill="#a1adba" d="
  M 392.74 787.64
  Q 389.88 785.28 387.40 782.73
  Q 387.09 782.41 386.65 782.39
  Q 386.37 782.38 386.17 782.19
  Q 372.92 768.95 361.99 755.30
  Q 345.27 734.40 335.34 708.85
  C 332.57 701.74 331.67 695.15 337.56 690.04
  C 342.67 685.60 350.11 685.87 354.99 690.55
  Q 357.10 692.58 358.97 697.84
  Q 368.72 725.26 389.34 747.77
  Q 392.78 751.52 396.04 755.26
  C 399.50 759.24 393.69 764.81 389.56 760.65
  C 372.05 742.99 357.95 721.86 349.92 698.43
  C 347.99 692.81 340.00 695.92 341.91 701.61
  C 349.15 723.20 362.10 743.53 377.35 760.26
  Q 400.32 785.45 428.63 806.21
  C 433.51 809.80 428.27 816.41 423.82 813.22
  Q 408.99 802.56 395.28 790.20
  C 394.42 789.43 393.62 788.37 392.74 787.64
  Z"
/>
<path fill="#a1adba" d="
  M 411.75 721.18
  Q 425.46 737.15 442.41 751.54
  Q 445.77 754.40 443.30 757.90
  Q 443.26 757.96 443.20 758.00
  Q 440.03 760.75 437.14 758.33
  Q 424.99 748.09 412.76 735.27
  Q 405.19 727.34 399.40 719.40
  Q 397.21 716.39 399.97 713.46
  Q 400.06 713.36 400.18 713.30
  Q 403.82 711.14 405.93 713.94
  Q 408.76 717.70 411.75 721.18
  Z"
/>
<path fill="#a1adba" d="
  M 381.88 789.36
  Q 398.57 805.40 418.40 820.01
  Q 421.75 822.48 419.25 825.81
  Q 419.20 825.88 419.14 825.95
  Q 416.60 829.22 413.20 826.76
  Q 392.00 811.47 372.90 792.71
  Q 355.69 775.82 344.40 760.68
  Q 333.32 745.85 324.67 727.51
  Q 323.05 724.08 326.71 722.13
  Q 326.78 722.09 326.86 722.05
  Q 330.66 720.39 332.60 724.41
  Q 345.48 751.11 365.27 772.45
  Q 373.35 781.16 381.88 789.36
  Z"
/>
<path fill="#a1adba" d="
  M 282.40 758.44
  Q 280.53 754.98 283.91 752.35
  Q 284.01 752.28 284.12 752.23
  Q 288.06 750.67 290.05 754.47
  Q 304.99 782.91 326.93 806.90
  Q 346.76 828.58 370.87 848.36
  Q 373.96 850.90 371.47 854.22
  Q 371.42 854.29 371.36 854.36
  Q 368.67 857.54 365.51 854.95
  Q 330.26 826.11 307.62 797.38
  Q 294.19 780.33 282.40 758.44
  Z"
/>
<path fill="#a1adba" d="
  M 262.12 774.86
  Q 272.43 793.66 284.33 809.41
  Q 297.39 826.70 316.14 845.21
  Q 319.22 848.25 316.49 851.42
  Q 316.43 851.49 316.36 851.55
  Q 313.19 854.33 310.49 851.67
  Q 297.24 838.63 286.91 826.35
  Q 263.57 798.61 247.83 765.89
  Q 246.06 762.22 249.54 760.14
  Q 249.61 760.09 249.68 760.06
  Q 253.51 758.20 255.22 761.63
  Q 258.77 768.77 262.12 774.86
  Z"
/>
<path fill="#a1adba" d="
  M 402.12 767.09
  Q 405.16 764.24 408.37 767.23
  Q 421.95 779.84 436.35 790.61
  Q 439.91 793.27 437.39 796.65
  Q 437.34 796.72 437.29 796.78
  Q 434.53 799.91 431.36 797.56
  Q 415.35 785.71 402.26 773.17
  Q 399.55 770.58 402.00 767.23
  Q 402.06 767.16 402.12 767.09
  Z"
/>
<path fill="#f1f8ff" d="
  M 41.44 1031.92
  Q 41.65 1032.47 42.08 1032.47
  Q 169.57 1032.48 296.70 1032.48
  Q 297.27 1032.48 297.27 1033.05
  L 297.28 1049.75
  A 0.53 0.53 0.0 0 1 296.75 1050.28
  L 24.01 1050.28
  Q 23.50 1050.28 23.50 1049.77
  L 23.50 777.99
  A 0.51 0.50 0.0 0 1 24.01 777.49
  L 40.90 777.54
  A 0.48 0.48 0.0 0 1 41.38 778.02
  L 41.38 1031.75
  A 0.20 0.01 67.9 0 0 41.44 1031.92
  Z"
/>
<path fill="#f1f8ff" d="
  M 1925.61 1032.00
  L 1925.63 777.97
  A 0.47 0.47 0.0 0 1 1926.10 777.50
  L 1943.03 777.51
  A 0.47 0.47 0.0 0 1 1943.50 777.98
  L 1943.50 1049.81
  A 0.47 0.47 0.0 0 1 1943.03 1050.28
  L 1670.17 1050.28
  A 0.47 0.47 0.0 0 1 1669.70 1049.81
  L 1669.70 1032.94
  A 0.47 0.47 0.0 0 1 1670.17 1032.47
  L 1925.14 1032.47
  A 0.47 0.47 0.0 0 0 1925.61 1032.00
  Z"
/>
<path fill="#a1adba" d="
  M 390.74 847.50
  Q 390.70 847.56 390.65 847.61
  Q 387.60 850.58 384.36 848.08
  Q 351.58 822.80 324.89 791.59
  Q 322.04 788.25 324.95 785.18
  Q 325.01 785.11 325.08 785.05
  Q 328.28 782.34 331.16 785.70
  Q 357.73 816.72 389.59 841.28
  Q 393.02 843.92 390.74 847.50
  Z"
/>
<path fill="#a1adba" d="
  M 255.38 812.59
  Q 252.95 809.02 256.16 806.14
  Q 256.24 806.06 256.35 806.01
  Q 260.23 804.29 262.61 807.82
  Q 271.36 820.79 282.16 833.31
  Q 285.04 836.64 281.94 839.54
  Q 281.89 839.58 281.85 839.61
  Q 278.51 842.18 275.72 838.96
  Q 264.72 826.28 255.38 812.59
  Z"
/>
<rect fill="#a1adba" x="-17.16" y="-4.32" transform="translate(392.72,827.27) rotate(38.4)" width="34.32" height="8.64" rx="4.09"/>
<rect fill="#1c242d" x="1527.80" y="814.69" width="258.22" height="82.10" rx="9.88"/>
<path fill="#1c242d" d="
  M 1219.74 898.52
  L 1215.95 894.48
  Q 1214.79 891.63 1214.79 888.50
  Q 1214.77 859.47 1214.80 830.44
  Q 1214.80 824.87 1216.21 822.34
  Q 1218.87 817.59 1225.25 817.58
  Q 1344.53 817.56 1464.40 817.58
  C 1470.71 817.58 1475.01 821.78 1475.00 827.89
  Q 1474.99 860.25 1475.02 889.53
  C 1475.02 893.51 1472.72 897.65 1469.10 899.06
  Q 1467.29 899.76 1462.93 899.76
  Q 1342.96 899.74 1223.00 899.75
  Q 1221.52 899.75 1219.74 898.52
  Z"
/>
<rect fill="#a1adba" x="-15.26" y="-4.32" transform="translate(336.59,846.91) rotate(42.8)" width="30.52" height="8.64" rx="4.16"/>
<path fill="#a1adba" d="
  M 1215.95 894.48
  L 1219.74 898.52
  Q 1216.49 897.31 1215.95 894.48
  Z"
/>
</svg>
